<svg width="15" height="15" fill="none" xmlns="http://www.w3.org/2000/svg"><path d="M.938 7.7v5.625c0 .518.42.938.937.938h4.688V7.7H.938zm13.125-3.75h-2.967c.213-.145.396-.29.523-.419a1.96 1.96 0 000-2.758c-.735-.74-2.015-.738-2.75 0-.406.408-1.484 2.068-1.335 3.177h-.068c.148-1.109-.93-2.769-1.336-3.177-.735-.738-2.015-.738-2.75 0a1.962 1.962 0 000 2.758c.128.13.31.274.524.42H.938A.939.939 0 000 4.887v1.406c0 .259.21.469.469.469h6.093V4.888h1.875v1.875h6.094c.259 0 .469-.21.469-.469V4.888a.938.938 0 00-.938-.938zm-7.556-.03s-.04.03-.173.03c-.648 0-1.885-.673-2.289-1.08a1.023 1.023 0 010-1.436.996.996 0 011.42 0c.633.636 1.26 2.26 1.042 2.486zm2.158.03c-.133 0-.172-.03-.172-.03-.219-.226.41-1.85 1.041-2.486a1.022 1.022 0 011.42 0 1.02 1.02 0 010 1.436c-.403.407-1.64 1.08-2.289 1.08zM8.438 7.7v6.563h4.687c.518 0 .938-.42.938-.938V7.7H8.436z" fill="#fff"/></svg>