<svg width="84" height="74" fill="none" xmlns="http://www.w3.org/2000/svg"><g clip-path="url(#clip0_2157_36902)"><path d="M46.303 36.832a1.214 1.214 0 000-1.735 1.22 1.22 0 00-1.74 0 3.617 3.617 0 01-5.123 0 1.22 1.22 0 00-1.74 0 1.214 1.214 0 000 1.735 6.097 6.097 0 004.302 1.773 6.097 6.097 0 004.3-1.773z" fill="#CA0100"/><path d="M81.943 66.293h-3.179v-6.792a2.878 2.878 0 00-2.88-2.873H65.3v-7.743c0-.672-.542-1.232-1.234-1.232a1.22 1.22 0 00-1.234 1.232v7.743h-12.1V45.899h8.416a3.661 3.661 0 013.59 2.836c.15.654.823 1.064 1.478.915a1.236 1.236 0 00.916-1.474 6.121 6.121 0 00-5.984-4.721h-8.415v-1.549a10.196 10.196 0 004.095-6.25h1.477a4.504 4.504 0 004.507-4.497v-2.314a4.412 4.412 0 00-1.57-3.395v-5.113c0-1.94-.412-3.825-1.216-5.579a1.229 1.229 0 00-2.244 1.008 10.99 10.99 0 01.99 4.571v4.03c-.167-.018-.317-.018-.485-.018h-1.272V22.65a4.913 4.913 0 00-3.758-4.777 3.533 3.533 0 00-2.188.187l-7.611 3.153c-.356.15-.73.224-1.104.224h-7.779a3.69 3.69 0 00-3.609 2.91h-1.29c-.168 0-.318.02-.486.02v-4.031c0-6.101 4.974-11.046 11.07-11.046h7.48c2.524 0 4.9.821 6.881 2.388.524.43 1.31.336 1.72-.205a1.201 1.201 0 00-.205-1.716c-.954-.765-2-1.381-3.104-1.848a5.93 5.93 0 00.393-2.09c0-3.209-2.618-5.802-5.816-5.802h-7.218c-3.216 0-5.816 2.612-5.816 5.803 0 .727.131 1.436.393 2.09-4.843 2.07-8.228 6.847-8.228 12.426v5.113a4.504 4.504 0 00-1.57 3.395v2.314a4.504 4.504 0 004.506 4.497h1.477a10.303 10.303 0 004.095 6.25v1.549h-8.414c-3.385 0-6.153 2.762-6.153 6.139v9.74l-7.33-12.688a3.19 3.19 0 00-2.001-1.53 3.223 3.223 0 00-2.487.336 3.263 3.263 0 00-1.197 4.478l7.031 12.146a8.322 8.322 0 00-2.45 4.217h-8.19A2.06 2.06 0 000 68.346v3.6A2.06 2.06 0 002.057 74h43.459a1.23 1.23 0 001.234-1.231 1.22 1.22 0 00-1.234-1.232H2.468v-2.78h79.064v2.78H36.914c-.674 0-1.235.541-1.235 1.232 0 .69.543 1.231 1.235 1.231h45.029A2.06 2.06 0 0084 71.947v-3.601a2.06 2.06 0 00-2.057-2.053zm-26.872-39.5h1.272a2.06 2.06 0 012.057 2.052v2.314a2.06 2.06 0 01-2.057 2.053H55.07v-6.42zm-16.68-24.33h7.218a3.372 3.372 0 013.366 3.358c0 .466-.093.914-.28 1.324a14.05 14.05 0 00-2.955-.317h-7.48c-1.01 0-2 .112-2.955.336a3.178 3.178 0 01-.28-1.325 3.364 3.364 0 013.366-3.377zm-9.462 30.73h-1.253a2.06 2.06 0 01-2.057-2.053v-2.313a2.06 2.06 0 012.057-2.053h1.272v6.419h-.02zM7.798 48.698a.79.79 0 01-.075-.616.802.802 0 01.785-.616c.075 0 .15.02.206.038a.848.848 0 01.505.373l.449.765-1.421.821-.45-.765zm1.683 2.91l1.421-.82 5.386 9.31a8.572 8.572 0 00-1.553.579l-5.254-9.068zm3.31 14.685a5.9 5.9 0 015.591-4.011 5.9 5.9 0 015.591 4.011H12.791zm20.457 0h-6.713a8.442 8.442 0 00-5.385-6.008v-10.71a3.687 3.687 0 013.684-3.676h8.414v20.394zm-1.85-32.727v-8.471c0-.672.56-1.232 1.233-1.232h7.78c.71 0 1.383-.13 2.038-.41l7.61-3.153c.225-.094.45-.112.655-.056a2.44 2.44 0 011.87 2.388v10.915c0 4.292-3.497 7.781-7.798 7.781h-5.628c-4.264.019-7.76-3.47-7.76-7.762zm16.885 9.628v5.392l-2.898-2.295.99-2.612c.674-.112 1.31-.28 1.908-.485zm-4.581.597L42 48.269l-1.702-4.478h3.404zm-5.087 2.5l-2.898 2.295v-5.392c.617.224 1.234.373 1.889.485l1.01 2.612zm5.05 13.21v6.792h-7.948v-14.59l3.815-3.024.56 1.456A2.038 2.038 0 0042 51.46c.842 0 1.608-.523 1.926-1.325l.561-1.456 3.815 3.023v4.926h-1.758c-1.59.019-2.88 1.306-2.88 2.873zm32.65 6.792H46.113v-6.792c0-.223.187-.41.411-.41h29.36c.224 0 .41.187.41.41v6.792h.02z" fill="#262626"/><path d="M69.58 61.48H52.844a1.232 1.232 0 100 2.463H69.58a1.232 1.232 0 100-2.463zm-46.096-4.684c0 .672.543 1.232 1.235 1.232h4.992a1.232 1.232 0 100-2.463H24.72c-.692.019-1.235.56-1.235 1.231z" fill="#CA0100"/></g><defs><clipPath id="clip0_2157_36902"><path fill="#fff" d="M0 0h84v74H0z"/></clipPath></defs></svg>