<svg width="98" height="79" fill="none" xmlns="http://www.w3.org/2000/svg"><g clip-path="url(#clip0_2157_36927)"><path d="M69.496 29.31c1.36-.041 2.468-1.157 2.468-2.522 0-1.384-1.15-2.521-2.551-2.521H68.2c-.314 0-.607.062-.879.165l-.773-2.439a3.629 3.629 0 00-3.472-2.522H48.04c-.983 0-1.903.372-2.593 1.054l-.042.042-.02.041c-.523.723-.858 1.468-.858 1.509l-.02.02-.691 2.15H40.95l-.063.021c-1.36.29-1.715 1.426-1.715 2.046-.02.166-.042.31-.042.476 0 1.364 1.109 2.48 2.468 2.521-.69 1.117-1.297 2.336-1.61 3.721h-7.654a3.61 3.61 0 00-3.472 2.522l-.774 2.439a2.547 2.547 0 00-.878-.166h-1.213c-1.401 0-2.552 1.137-2.552 2.522 0 1.364 1.088 2.46 2.468 2.522l-.146.227a10.542 10.542 0 00-1.715 5.788v7.151c0 1.303 1.066 2.357 2.384 2.357h1.401c1.318 0 2.384-1.054 2.384-2.356v-1.944h19.282v1.944c0 1.302 1.067 2.356 2.385 2.356h1.4c1.318 0 2.385-1.054 2.385-2.356l.02-7.173c0-.744-.585-1.323-1.38-1.323-.773 0-1.338.558-1.338 1.323v.062a3.25 3.25 0 00-2.782-1.591c-2.614 0-4.998 1.529-6.043 3.906l-.063.145h-8.428l-.063-.145c-1.046-2.377-3.43-3.906-6.044-3.906a3.25 3.25 0 00-2.782 1.591v-.062c0-1.53.44-3.038 1.276-4.34l1.088-1.675h21.478c.104.145.209.31.292.455.482.723.983 1.467 1.339 2.232.23.476.67.765 1.192.765.481 0 .962-.248 1.213-.64.23-.373.272-.828.063-1.241-.251-.558-.565-1.075-.879-1.57.732-.021 1.402-.373 1.883-.952.334-.413.522-.889.564-1.405h8.93v1.943c0 1.302 1.067 2.356 2.384 2.356h1.402c1.317 0 2.384-1.054 2.384-2.356l.02-7.173c0-2.046-.585-4.051-1.714-5.787l-.189-.207zM47.12 22.8a1.42 1.42 0 01.084-.208.924.924 0 01.795-.434h15.036c.398 0 .753.248.879.641l1.213 3.824h-19.24l1.233-3.824zm21.5 17.734v1.612h-.733v-1.612h.732zm-37.206-4.175a.915.915 0 01.879-.641h15.036c.398 0 .753.248.879.64l1.213 3.824H30.18l1.233-3.824zM47.35 33.03h-4.56c.398-1.24 1.109-2.315 1.861-3.473.063-.083.105-.165.168-.248h21.478l1.087 1.674a7.984 7.984 0 011.276 4.341v.062a3.25 3.25 0 00-2.781-1.592c-2.615 0-4.999 1.53-6.044 3.907l-.063.145h-8.198l-.753-2.295a3.629 3.629 0 00-3.472-2.521zm18.509 3.452c.271 0 .501.206.501.475l.021.868H62.91a3.92 3.92 0 012.949-1.343zM50.152 50.041c.271 0 .502.207.502.475l.02.868h-3.471a3.92 3.92 0 012.949-1.343zm2.028 5.663v-1.612h.732v1.612h-.732zm-25.472 0v-1.612h.732v1.612h-.732zm2.781-5.663c1.15 0 2.238.517 2.95 1.364h-3.473l.021-.868c.021-.269.23-.496.502-.496z" fill="#CA0100"/><path d="M87.459 43.2c-.398 0-.774-.145-1.046-.434l-9.055-8.95c-.544-.558-.544-1.468.02-2.047a1.497 1.497 0 011.046-.433c.376 0 .753.144 1.025.413l6.546 6.47-.21-2.15C84.344 20.463 72.987 7.524 57.511 3.907a37.154 37.154 0 00-8.533-.993c-12.84 0-24.573 6.429-31.37 17.218a1.496 1.496 0 01-1.255.703h-.042a1.478 1.478 0 01-1.254-.785 1.424 1.424 0 01.062-1.468A39.768 39.768 0 0129.76 4.878 40.365 40.365 0 0148.999-.02c3.22 0 6.42.393 9.557 1.158 8.22 2.005 15.476 6.449 20.935 12.836 5.458 6.387 8.679 14.2 9.306 22.55l.126 1.695 6.566-6.49a1.498 1.498 0 011.046-.434c.397 0 .774.145 1.046.434.272.269.439.641.439 1.034 0 .392-.146.764-.44 1.033l-9.055 8.95c-.293.29-.669.455-1.066.455zM48.98 79c-3.221 0-6.421-.392-9.558-1.157-8.22-2.005-15.476-6.45-20.934-12.836-5.459-6.408-8.68-14.2-9.307-22.551l-.125-1.695-6.567 6.49a1.503 1.503 0 01-1.025.393c-.397 0-.774-.145-1.046-.434-.564-.558-.564-1.468-.02-2.046l9.034-8.93a1.498 1.498 0 011.046-.434c.397 0 .774.145 1.045.434l9.056 8.95a1.468 1.468 0 01-.021 2.047 1.498 1.498 0 01-1.046.434c-.376 0-.753-.145-1.024-.414l-6.546-6.47.209 2.15c1.464 15.627 12.84 28.566 28.296 32.183a37.11 37.11 0 008.511.992c12.841 0 24.573-6.428 31.37-17.217a1.45 1.45 0 011.255-.683c.272 0 .544.083.774.228.69.434.9 1.323.46 2.005-3.597 5.725-8.658 10.459-14.618 13.704A40.597 40.597 0 0148.978 79z" fill="#262626"/></g><defs><clipPath id="clip0_2157_36927"><path fill="#fff" d="M0 0h98v79H0z"/></clipPath></defs></svg>