<svg width="104" height="66" fill="none" xmlns="http://www.w3.org/2000/svg"><g clip-path="url(#clip0_2157_36909)"><path d="M30.74 30.837c-1.3 0-2.503-.5-3.42-1.423a4.86 4.86 0 01-1.414-3.441 4.86 4.86 0 011.414-3.441l6.992-7.037a4.845 4.845 0 013.42-1.422h21.567c1.28 0 2.522.519 3.42 1.422l6.992 7.037a4.86 4.86 0 011.413 3.44c0 2.692-2.177 4.884-4.852 4.884 0-.02-35.533-.02-35.533-.02zm-1.51-6.383a2.137 2.137 0 00-.458 2.346 2.094 2.094 0 001.948 1.326h2.465v-7.652l-3.955 3.98zm24.128 3.672H66.31c.86 0 1.643-.519 1.949-1.326a2.11 2.11 0 00-.478-2.346l-6.973-7.017a2.152 2.152 0 00-1.509-.635h-5.94v11.324zM37.731 16.783a2.15 2.15 0 00-1.509.635l-.325.326v10.382h14.767V16.783H37.731z" fill="#262626"/><path d="M81.687 66c-5.827 0-10.85-4.383-11.672-10.209l-.058-.346H34.062l-.058.346c-.745 5.191-4.852 9.344-10.01 10.074-.554.077-1.127.116-1.7.116-5.827 0-10.85-4.384-11.672-10.209l-.058-.346H8.348C3.763 55.426.02 51.658 0 47.025V36.47c0-4.614 3.744-8.382 8.348-8.401h.592c1.51 0 2.923-.596 3.974-1.654L29.782 9.44c1.548-1.558 3.687-2.461 5.865-2.461h11.5V1.365c0-.75.612-1.365 1.357-1.365h6.992c.745 0 1.356.615 1.356 1.365v5.671h4.509c2.197 0 4.336.904 5.865 2.461l16.868 16.976a5.64 5.64 0 003.974 1.653h7.584c4.585 0 8.329 3.769 8.348 8.402v10.554c0 4.614-3.744 8.383-8.348 8.402h-2.235l-.058.346c-.745 5.19-4.852 9.343-10.01 10.074-.535.058-1.108.096-1.662.096zm0-21.09c-5.024 0-9.132 4.114-9.132 9.19 0 5.056 4.089 9.19 9.132 9.19 5.024 0 9.112-4.134 9.132-9.19 0-5.076-4.089-9.19-9.132-9.19zm-59.374 0c-5.024 0-9.131 4.114-9.131 9.19 0 5.056 4.088 9.19 9.131 9.19 5.024 0 9.112-4.134 9.132-9.19 0-5.076-4.108-9.19-9.132-9.19zm0-2.73c.382 0 .764.02 1.146.058.077 0 .153.019.23.038.057 0 .095.02.152.02.249.038.516.076.745.115l.287.057c.057.02.095.02.153.039.21.058.44.115.65.173.133.038.248.077.381.115l.077.02c.19.057.4.134.611.23.153.058.287.135.44.192.229.096.4.193.553.27.134.077.287.153.42.23.173.096.345.212.536.327.133.096.267.173.4.27.154.095.287.21.44.326l.115.096c.114.077.21.173.305.25.172.135.306.288.478.423l.096.077c.076.077.152.154.248.23.153.174.306.328.458.5a.832.832 0 00.115.135c.057.058.115.115.153.192.153.193.306.404.497.654.019.038.057.077.076.115.019.039.057.077.076.116.191.288.382.615.554.942.02.038.058.096.077.154.019.057.057.096.076.153.134.25.248.481.344.692.038.077.057.154.096.231l.057.173c.076.212.172.423.23.635.037.096.056.211.095.307l.038.135c.076.23.134.442.172.634.038.154.057.308.095.48.02.058.02.116.038.193.02.077.02.135.039.212l.057.346h35.8l.058-.346c.019-.077.019-.135.038-.212.019-.058.019-.115.038-.173l.019-.077c.02-.134.057-.269.076-.404l.172-.634.039-.135c.038-.115.057-.211.095-.326.057-.193.134-.366.191-.558l.038-.096.038-.115.115-.289c.115-.23.23-.48.344-.692.02-.038.057-.096.076-.154.02-.057.058-.096.077-.154a9.52 9.52 0 01.573-.941c.02-.039.057-.077.076-.116.02-.038.058-.077.077-.115.133-.212.305-.423.496-.673.058-.077.115-.135.172-.212l.191-.211c.115-.135.23-.27.363-.404.077-.077.153-.154.249-.23l.172-.154c.133-.116.248-.231.363-.327.114-.096.21-.173.324-.27l.058-.038c.172-.134.344-.25.516-.384.114-.077.21-.154.324-.212l.077-.057c.172-.116.344-.212.535-.327.133-.077.286-.154.42-.23.172-.097.344-.174.516-.25l.076-.04.401-.172c.191-.077.382-.154.612-.231l.095-.039.344-.115c.23-.057.459-.115.65-.173.057-.02.095-.02.152-.038l.287-.058c.248-.058.497-.077.745-.115.057 0 .095-.02.153-.02.076-.019.153-.019.229-.038a12.26 12.26 0 011.165-.058c.344 0 .726.02 1.147.058a.95.95 0 01.229.038c.057 0 .172.02.172.02.248.038.496.057.726.115l.286.058c.058.019.096.019.153.038.23.058.44.116.65.173.133.039.248.077.382.115l.057.02c.191.057.401.134.611.23.153.058.287.135.44.193.229.096.4.192.554.269.133.077.286.154.42.23.172.097.363.212.535.327.134.096.267.173.401.27.153.096.286.211.44.326l.114.097c.115.076.21.172.325.25.172.134.325.288.477.442l.096.077.23.23c.152.173.305.327.458.5.038.058.076.096.114.135a.75.75 0 01.153.192c.153.192.306.404.497.654.019.038.057.076.076.115.02.038.057.077.077.115.19.289.382.616.554.942.019.039.057.096.076.154.02.058.057.096.076.154.134.25.249.48.344.692.038.077.058.154.096.23l.057.174c.077.211.172.423.23.634.037.096.057.212.095.308l.038.134c.077.231.134.442.172.635.038.154.057.307.095.48.02.058.02.116.039.193s.019.134.038.211l.057.346h2.216c2.37-.019 4.49-1.538 5.292-3.787l.191-.52h-3.42v-2.73h3.496v-7.785h-5.635a1.366 1.366 0 01-1.357-1.365v-5.672h-6.246a8.275 8.275 0 01-5.865-2.46L65.334 11.4a5.64 5.64 0 00-3.973-1.653H35.686a5.65 5.65 0 00-3.993 1.653L14.824 28.377a8.294 8.294 0 01-4.795 2.346l-.343.038v5.73c0 .75-.612 1.364-1.357 1.364H2.713v9.19c0 3.134 2.521 5.671 5.635 5.671h2.197l.057-.346c.02-.077.02-.134.039-.211.019-.058.019-.116.038-.192l.019-.077c.02-.135.057-.27.076-.404l.172-.634.039-.135c.038-.115.057-.212.095-.327.057-.192.134-.365.191-.557v-.039l.038-.115.115-.288c.115-.25.23-.481.344-.693.019-.038.038-.096.076-.154.02-.057.058-.096.077-.153a9.52 9.52 0 01.573-.942c.019-.039.057-.077.076-.116.02-.038.057-.077.077-.115.133-.212.305-.423.496-.673.058-.077.115-.134.172-.211l.191-.231c.115-.135.23-.27.363-.404.077-.077.153-.154.249-.23l.171-.154c.134-.116.249-.231.364-.346.114-.097.21-.173.324-.27l.038-.038c.172-.134.344-.25.516-.384.115-.077.21-.154.306-.212l.076-.058c.172-.115.344-.211.535-.326.134-.077.287-.154.42-.231.172-.096.344-.173.516-.25l.077-.038.4-.174c.192-.076.383-.153.612-.23l.096-.039.344-.115c.229-.058.458-.115.65-.173.056-.02.095-.02.152-.038l.287-.058c.248-.058.496-.077.745-.116.057 0 .095-.019.152-.019.077-.019.153-.019.23-.038.42.038.821.019 1.184.019zm74.714-7.017h4.146l-.191-.538c0-.02 0-.02-.019-.039 0-.038-.02-.058-.039-.096a4.21 4.21 0 00-.363-.73 1.104 1.104 0 01-.076-.135c-.038-.058-.057-.115-.096-.173a5.624 5.624 0 00-1.642-1.654c-.096-.057-.172-.115-.249-.153-.038-.02-.057-.039-.095-.039a5.035 5.035 0 00-.726-.346c-.039-.02-.077-.02-.096-.038-.019 0-.019 0-.038-.02l-.535-.192v4.153h.02zM3.63 33.413c-.058.097-.115.173-.153.25-.02.039-.038.058-.038.096a5.024 5.024 0 00-.344.731c-.02.038-.02.077-.038.096v.038l-.191.539H7.01V30.99l-.535.192c-.019 0-.019 0-.038.02-.038 0-.057.019-.096.038a5.13 5.13 0 00-.726.365 1.097 1.097 0 01-.133.077c-.058.038-.115.058-.172.096a5.477 5.477 0 00-1.681 1.634zM49.86 7.036h4.28V2.73h-4.28v4.306z" fill="#262626"/><path d="M22.313 58.964c-2.674 0-4.852-2.192-4.852-4.883 0-2.692 2.178-4.884 4.852-4.884 2.675 0 4.853 2.192 4.853 4.884 0 2.691-2.178 4.883-4.853 4.883zm0-7.017c-1.184 0-2.14.96-2.14 2.153 0 1.192.956 2.153 2.14 2.153 1.185 0 2.14-.961 2.14-2.153a2.143 2.143 0 00-2.14-2.153zm59.375 7.017c-2.674 0-4.852-2.192-4.852-4.883 0-2.692 2.178-4.884 4.852-4.884 2.675 0 4.853 2.192 4.853 4.884 0 2.691-2.178 4.883-4.853 4.883zm0-7.017c-1.184 0-2.14.96-2.14 2.153 0 1.192.956 2.153 2.14 2.153 1.185 0 2.14-.961 2.14-2.153a2.143 2.143 0 00-2.14-2.153zm-40.561-6.249h-2.713v2.73h2.713v-2.73zm3.5-3.518h-2.713v2.73h2.713v-2.73zm3.492 3.518h-2.713v2.73h2.713v-2.73zm3.5-3.518h-2.713v2.73h2.713v-2.73zm3.492 3.518h-2.713v2.73h2.713v-2.73zm3.492-3.518h-2.712v2.73h2.712v-2.73zm3.485 3.518h-2.713v2.73h2.713v-2.73zm3.492-3.518h-2.713v2.73h2.713v-2.73zm-24.453-3.518h-2.713v2.73h2.713v-2.73zm6.992 0h-2.713v2.73h2.713v-2.73zm6.992 0h-2.713v2.73h2.713v-2.73zm6.977 0h-2.713v2.73h2.713v-2.73z" fill="#CA0100"/></g><defs><clipPath id="clip0_2157_36909"><path fill="#fff" d="M0 0h104v66H0z"/></clipPath></defs></svg>