<svg width="21" height="21" fill="none" xmlns="http://www.w3.org/2000/svg"><circle cx="10.5" cy="10.5" r="10.5" fill="#CA0100"/><path d="M5.86 10.816v3.692c0 .34.276.615.615.615H9.55v-4.307H5.859zm8.619-2.461h-1.947c.14-.095.26-.19.343-.275a1.286 1.286 0 000-1.81c-.482-.486-1.322-.484-1.804 0-.267.268-.975 1.358-.877 2.085h-.044c.097-.727-.61-1.817-.877-2.085-.482-.484-1.323-.484-1.804 0a1.288 1.288 0 00-.001 1.81c.084.085.204.18.344.275H5.865a.616.616 0 00-.615.616v.922c0 .17.138.308.308.308h3.999v-1.23h1.23v1.23h4a.308.308 0 00.307-.308v-.922a.616.616 0 00-.615-.616zm-4.959-.02s-.025.02-.113.02c-.426 0-1.237-.441-1.502-.708a.671.671 0 010-.943.653.653 0 01.932 0c.414.417.827 1.483.683 1.631zm1.417.02c-.088 0-.114-.02-.114-.02-.143-.148.27-1.214.684-1.63a.671.671 0 01.932 0 .67.67 0 010 .942c-.265.267-1.077.708-1.502.708zm-.156 2.461v4.307h3.076c.34 0 .616-.276.616-.615v-3.692H10.78z" fill="#fff"/></svg>