<svg width="484" height="44" fill="none" xmlns="http://www.w3.org/2000/svg"><path fill="#262626" d="M352 0h22v22h-22z"/><path fill="#FFCC17" d="M374 0h22v22h-22zm-22 22h22v22h-22z"/><path fill="#262626" d="M374 22h22v22h-22zM0 0h22v22H0z"/><path fill="#FFCC17" d="M22 0h22v22H22zM0 22h22v22H0z"/><path fill="#262626" d="M22 22h22v22H22zM176 0h22v22h-22z"/><path fill="#FFCC17" d="M198 0h22v22h-22zm-22 22h22v22h-22z"/><path fill="#262626" d="M198 22h22v22h-22zM440 0h22v22h-22z"/><path fill="#FFCC17" d="M462 0h22v22h-22zm-22 22h22v22h-22z"/><path fill="#262626" d="M462 22h22v22h-22zM88 0h22v22H88z"/><path fill="#FFCC17" d="M110 0h22v22h-22zM88 22h22v22H88z"/><path fill="#262626" d="M110 22h22v22h-22zM264 0h22v22h-22z"/><path fill="#FFCC17" d="M286 0h22v22h-22zm-22 22h22v22h-22z"/><path fill="#262626" d="M286 22h22v22h-22zM396 0h22v22h-22z"/><path fill="#FFCC17" d="M418 0h22v22h-22zm-22 22h22v22h-22z"/><path fill="#262626" d="M418 22h22v22h-22zM44 0h22v22H44z"/><path fill="#FFCC17" d="M66 0h22v22H66zM44 22h22v22H44z"/><path fill="#262626" d="M66 22h22v22H66zM220 0h22v22h-22z"/><path fill="#FFCC17" d="M242 0h22v22h-22zm-22 22h22v22h-22z"/><path fill="#262626" d="M242 22h22v22h-22zM132 0h22v22h-22z"/><path fill="#FFCC17" d="M154 0h22v22h-22zm-22 22h22v22h-22z"/><path fill="#262626" d="M154 22h22v22h-22zM308 0h22v22h-22z"/><path fill="#FFCC17" d="M330 0h22v22h-22zm-22 22h22v22h-22z"/><path fill="#262626" d="M330 22h22v22h-22z"/></svg>