<svg width="64" height="77" fill="none" xmlns="http://www.w3.org/2000/svg"><g clip-path="url(#clip0_2157_36831)"><path d="M19.137 55.224h-2.435a1.19 1.19 0 00-1.218 1.22 1.19 1.19 0 001.218 1.219h2.434a1.19 1.19 0 001.218-1.22c0-.697-.348-1.22-1.217-1.22zm35.996 0H24.35a1.19 1.19 0 00-1.217 1.22 1.19 1.19 0 001.217 1.219h30.783a1.19 1.19 0 001.217-1.22 1.19 1.19 0 00-1.217-1.22zm-35.996-7.665h-2.435a1.19 1.19 0 00-1.218 1.22 1.19 1.19 0 001.218 1.219h2.434a1.19 1.19 0 001.218-1.22c0-.697-.348-1.22-1.217-1.22zm35.996 0H24.35a1.19 1.19 0 00-1.217 1.22 1.19 1.19 0 001.217 1.219h30.783a1.19 1.19 0 001.217-1.22 1.19 1.19 0 00-1.217-1.22zM19.137 39.72h-2.435a1.19 1.19 0 00-1.218 1.219c0 .697.522 1.22 1.218 1.22h2.434a1.19 1.19 0 001.218-1.22c0-.697-.348-1.22-1.217-1.22zm35.996 0H24.35a1.19 1.19 0 00-1.217 1.219c0 .697.522 1.22 1.217 1.22h30.783a1.19 1.19 0 001.217-1.22 1.19 1.19 0 00-1.217-1.22zm-35.996-7.666h-2.435a1.19 1.19 0 00-1.218 1.22c0 .697.522 1.22 1.218 1.22h2.434a1.19 1.19 0 001.218-1.22c0-.697-.348-1.22-1.217-1.22zm35.996 0H24.35a1.19 1.19 0 00-1.217 1.22c0 .697.522 1.22 1.217 1.22h30.783a1.19 1.19 0 001.217-1.22 1.19 1.19 0 00-1.217-1.22zM19.137 24.39h-2.435a1.19 1.19 0 00-1.218 1.219c0 .696.522 1.22 1.218 1.22h2.434a1.19 1.19 0 001.218-1.22c0-.697-.348-1.22-1.217-1.22zm35.996 0H24.35a1.19 1.19 0 00-1.217 1.219c0 .696.522 1.22 1.217 1.22h30.783a1.19 1.19 0 001.217-1.22 1.19 1.19 0 00-1.217-1.22z" fill="#CA0100"/><path d="M64 19.163v-.523c0-.174-.174-.348-.174-.348L45.74.348c-.174-.174-.174-.174-.348-.174H9.043C8.173 0 7.653.523 7.653 1.22v3.833H1.216C.522 5.052 0 5.749 0 6.446V75.78C0 76.477.522 77 1.217 77h53.74a1.19 1.19 0 001.217-1.22v-6.445h6.435a1.19 1.19 0 001.217-1.22L64 19.163zM46.087 4.355l13.565 13.588H46.087V4.355zm7.652 70.032H2.61V7.665h5.043v60.276c0 .697.522 1.22 1.218 1.22h44.87v5.226zm7.826-7.665H10.261V2.613h33.217v16.55c0 .697.522 1.22 1.218 1.22H61.39v46.339h.174z" fill="#262626"/><path d="M24.348 11.498h-7.652c-.696 0-1.391.697-1.391 1.393v7.665c0 .697.521 1.22 1.217 1.22h7.826a1.19 1.19 0 001.218-1.22v-7.665c0-.697-.522-1.393-1.218-1.393zm-1.217 7.665h-5.044V14.11h5.044v5.052z" fill="#262626"/></g><defs><clipPath id="clip0_2157_36831"><path fill="#fff" d="M0 0h64v77H0z"/></clipPath></defs></svg>