<svg width="78" height="78" fill="none" xmlns="http://www.w3.org/2000/svg"><path d="M23.017 33.386v.045c-.18 3.358 1.701 6.492 4.79 8.014h.045a5.89 5.89 0 012.552 2.462v.045c1.567 2.955 4.79 4.79 8.237 4.611h.045c1.253-.09 2.507.269 3.537.94a8.945 8.945 0 009.535 0 6.185 6.185 0 013.537-.94h.045c3.447.18 6.67-1.612 8.237-4.611a5.89 5.89 0 012.552-2.462h.045c3.089-1.523 4.97-4.656 4.79-8.014v-.045a5.495 5.495 0 01.94-3.313c1.925-2.82 1.925-6.536 0-9.312a5.495 5.495 0 01-.94-3.313v-.044c.18-3.358-1.701-6.492-4.79-8.014h-.045a5.89 5.89 0 01-2.552-2.462v-.045c-1.567-2.955-4.79-4.79-8.237-4.611h-.045c-1.253.09-2.507-.269-3.537-.94a8.945 8.945 0 00-9.535 0 6.185 6.185 0 01-3.537.94h-.045c-3.447-.18-6.67 1.611-8.237 4.611a5.89 5.89 0 01-2.552 2.462h-.045c-3.089 1.522-4.97 4.656-4.79 8.014v.045a5.496 5.496 0 01-.94 3.313c-1.926 2.82-1.926 6.536 0 9.311.671.94.984 2.105.94 3.313zm1.432-11.013a8.41 8.41 0 001.433-5.148v-.045a5.525 5.525 0 013.179-5.238h.044a8.589 8.589 0 003.85-3.716v-.044c1.03-1.97 3.224-3.18 5.507-3.045h.045c1.835.09 3.67-.358 5.238-1.343a5.996 5.996 0 016.447 0c1.566.985 3.402 1.478 5.237 1.343h.045c2.328-.134 4.477 1.075 5.507 3.045v.044a8.589 8.589 0 003.85 3.716h.045c2.059.985 3.268 3.044 3.178 5.238v.045a8.41 8.41 0 001.433 5.148 5.326 5.326 0 010 6.044 8.41 8.41 0 00-1.433 5.148v.045c.135 2.194-1.119 4.253-3.178 5.238a8.589 8.589 0 00-3.85 3.716c-1.03 1.97-3.224 3.179-5.507 3.044h-.045c-1.835-.09-3.67.358-5.238 1.343a5.996 5.996 0 01-6.447 0c-1.432-.895-3.089-1.388-4.745-1.388h-.537c-2.283.135-4.432-1.03-5.507-3.044v-.044a8.59 8.59 0 00-3.85-3.716h-.045c-2.059-.985-3.268-3.045-3.178-5.238v-.045a8.408 8.408 0 00-1.433-5.148c-1.298-1.747-1.298-4.12-.045-5.955z" fill="#CA0100"/><path d="M47.724 32.939c.224.134.448.224.716.224a1.35 1.35 0 001.164-.627l10.7-17.102c.269-.403.269-.94.045-1.387a1.29 1.29 0 00-1.164-.717h-.045c-.492 0-.895.269-1.164.627l-10.7 17.102c-.358.626-.179 1.477.448 1.88zm1.208-9.223c2.462 0 4.432-2.238 4.432-5.014 0-2.776-2.014-5.014-4.432-5.014-2.462 0-4.432 2.238-4.432 5.014 0 2.776 2.015 5.014 4.432 5.014zm0-7.252c.94 0 1.701 1.03 1.701 2.283s-.76 2.283-1.7 2.283c-.941 0-1.702-1.03-1.702-2.283 0-1.254.761-2.283 1.701-2.283zm5.287 11.281c0 2.775 2.014 5.014 4.432 5.014 2.462 0 4.432-2.239 4.432-5.014 0-2.776-2.015-5.014-4.432-5.014-2.418 0-4.432 2.238-4.432 5.014zm4.477 2.283c-.94 0-1.702-1.03-1.702-2.283 0-1.254.761-2.284 1.702-2.284.94 0 1.7 1.03 1.7 2.284 0 1.253-.76 2.283-1.7 2.283zm18.799 26.594c-1.925-3.403-6.178-4.701-9.625-2.955l-11.327 5.372a9.21 9.21 0 00-7.88-4.835l-10.475-.268a10.964 10.964 0 01-4.746-1.21l-1.074-.536c-5.462-2.82-11.953-2.82-17.37 0l.044-2.418c0-.806-.626-1.477-1.387-1.477l-11.461-.403c-.806 0-1.478.627-1.478 1.388L0 74.485c0 .805.627 1.477 1.388 1.477l11.46.313h.045c.761 0 1.433-.627 1.433-1.388l.045-1.208 3-1.612a5.122 5.122 0 013.805-.403l17.773 4.97c.045 0 .045 0 .09.044 1.298.269 2.596.403 3.894.403 2.776 0 5.552-.582 8.059-1.746.044-.045.134-.045.179-.09l25.787-16.698a1.45 1.45 0 00.537-1.925zm-65.99 16.743l-8.595-.224.627-22.25 8.595.224-.626 22.25zm38.233-.626c-3.134 1.432-6.67 1.79-10.028 1.119l-17.729-4.97c-2.014-.582-4.118-.313-5.954.672l-1.522.806.403-14.819a15.863 15.863 0 0116.162-.85l1.074.537c1.88.94 3.895 1.477 6 1.567l10.475.268c2.955.09 5.417 2.194 6.044 5.06l-15.58-.448c-.806 0-1.477.626-1.477 1.388 0 .76.627 1.477 1.388 1.477l17.19.492h.046c.76 0 1.432-.626 1.432-1.387 0-.627-.044-1.254-.134-1.88l11.595-5.507h.045c1.656-.851 3.626-.538 5.014.716L49.738 72.739zM36.223 33.655c4.163 0 6.536-3.537 6.536-9.67 0-2.866-.537-5.149-1.567-6.76-1.074-1.657-2.686-2.552-4.656-2.552-1.925 0-3.581.895-4.745 2.551C30.627 18.881 30 21.298 30 24.208c.045 5.82 2.462 9.447 6.223 9.447zm.179-16.207c2.686 0 3.089 4.164 3.089 6.67 0 2.553-.403 6.806-3.089 6.806-1.88 0-3.09-2.552-3.09-6.67-.044-4.164 1.21-6.806 3.09-6.806z" fill="#262626"/></svg>