<svg width="76" height="76" fill="none" xmlns="http://www.w3.org/2000/svg"><path d="M73.465 37.747c-.001-.127-.005-.253-.006-.379a49.44 49.44 0 00-.008-.518c0-.043-.002-.085-.003-.128-.242-10.368-3.413-19.718-8.374-26.389C60.664 4.372 54.837.528 48.384 0h-.253c-.09.008-.18.02-.27.03-.331-.018-.663-.03-.996-.03H29.13c-6.588 0-12.615 3.44-17.26 9.116a1.398 1.398 0 00-.324.403C6.019 16.495 2.53 26.69 2.53 38c0 20.9 11.907 38 26.6 38h17.734c.36 0 .72-.013 1.078-.034.105.012.21.025.315.034 12.16-1.013 22.293-13.427 24.7-30.527l.041-.4A53.82 53.82 0 0073.465 38v-.253zM31.57 57.943a1.094 1.094 0 00-.164-.409C29.16 51.928 27.865 45.214 27.865 38c0-18.7 8.83-34.04 20.08-35.43C60.743 3.409 70.931 19.026 70.931 38c0 18.976-10.19 34.594-22.988 35.43-6.878-.84-12.782-6.782-16.372-15.487zM6.64 50.615c.278-.087.554-.27.831-.455l1.647-2.533 2.66 2.66a1.225 1.225 0 001.773 0l2.914-2.914 3.04 3.04a1.224 1.224 0 001.773 0l3.04-3.04 2.082 1.863a51.741 51.741 0 001.701 6.489l-2.263-1.132c-.633-.38-1.267-.126-1.646.38l-1.647 2.534-2.66-2.66a1.225 1.225 0 00-1.774 0l-2.913 2.913-2.914-2.913a1.225 1.225 0 00-1.773 0l-1.829 1.828a44.02 44.02 0 01-2.041-6.06zM5.07 38.623l3.161 1.784c.507.253 1.14.126 1.52-.254l2.914-2.913 3.04 2.913a1.225 1.225 0 001.773 0l3.04-3.04 4.848 2.932a59.56 59.56 0 00.42 5.355l-.961-.813c-.507-.38-1.267-.254-1.647.126l-2.913 2.914-2.914-2.914a1.225 1.225 0 00-1.773 0l-2.913 2.914-2.914-2.914c-.253-.253-.633-.38-1.013-.38-.38 0-.76.254-1.014.507l-1.779 2.669a51.082 51.082 0 01-.875-8.886zm4.138-20.492l2.823 1.882c.38.254 1.013.254 1.393 0l3.04-2.026 3.167 2.153c.38.253 1.014.253 1.393 0l3.167-2.153 4.036 1.96a51.415 51.415 0 00-1.674 6.102l-1.602-1.602a1.224 1.224 0 00-1.773 0l-2.914 2.913-2.913-2.913a1.224 1.224 0 00-1.774 0l-2.912 2.913-2.914-2.913c-.253-.254-.507-.38-.887-.38s-.633.126-.886.38l-1.49 1.54a43.635 43.635 0 012.72-7.856zm4.078-6.802l7.992-2.336 3.293 2.154c.38.253 1.014.253 1.394 0l3.166-2.154 3.533 1.716c-1.358 2.081-2.561 4.41-3.58 6.938l-4.64-2.32c-.38-.127-.886-.127-1.266.126l-3.04 2.027-3.04-2.027c-.38-.253-1.013-.253-1.393 0l-3.04 2.027-2.31-1.636a33.72 33.72 0 012.931-4.515zm7.612 23.124a1.347 1.347 0 00-1.52.254l-2.913 2.913-2.914-2.913a1.224 1.224 0 00-1.773 0L8.61 37.873l-3.5-2.015a50.96 50.96 0 01.528-5.554 1.33 1.33 0 00.44-.284l2.786-2.913 2.914 2.913a1.225 1.225 0 001.773 0l2.914-2.913 2.913 2.913a1.225 1.225 0 001.773 0l2.914-2.913 1.646 1.646c.095.095.198.171.307.23a58.792 58.792 0 00-.68 8.134l-4.44-2.664zm19.824-31.92c-2.428 1.493-4.66 3.585-6.628 6.155L29.638 6.46c-.38-.127-.887-.127-1.267.127l-3.04 2.026-3.04-2.026c-.38-.254-.76-.254-1.14-.254l-4.39 1.254c3.615-3.205 7.846-5.054 12.37-5.054h11.59zm-30.92 56.57l1.596-1.596 2.913 2.913a1.225 1.225 0 001.774 0l2.913-2.913 2.913 2.913c.254.253.507.38.887.38.507 0 .887-.253 1.013-.633l1.9-2.914 3.659 1.83a39.285 39.285 0 003.284 6.208l-2.383 1.589-3.04-2.027c-.38-.253-1.013-.253-1.393 0l-3.04 2.027-3.04-2.027c-.38-.253-1.014-.253-1.393 0l-3.13 2.087c-2.08-2.175-3.915-4.824-5.433-7.838zm19.33 14.364c-4.4 0-8.522-1.748-12.068-4.79l1.934-1.29 3.166 2.026c.38.254 1.014.254 1.394 0l3.04-2.026 2.913 2.153c.38.253 1.014.253 1.394 0l3.238-2.159c1.966 2.541 4.196 4.608 6.623 6.086H29.13z" fill="#262626"/><path d="M49.395 10.133c-6.558 0-12.056 7.338-14.216 17.862l-.038.185c-.058.289-.114.58-.167.872l-.053.302a46.966 46.966 0 00-.513 3.903l-.034.383a56.79 56.79 0 00-.063.852l-.02.32a53.21 53.21 0 00-.04.757l-.01.221c-.013.318-.023.638-.03.959l-.005.246a53.11 53.11 0 00.035 3.214l.01.221c.012.254.025.507.04.758l.02.32c.019.286.04.57.063.852l.034.383a51.367 51.367 0 00.344 2.865 46.007 46.007 0 00.17 1.038l.052.302a44.674 44.674 0 00.204 1.057c2.161 10.524 7.66 17.862 14.217 17.862 8.487 0 15.2-12.287 15.2-27.867s-6.713-27.867-15.2-27.867zM36.898 42.006l-.02-.235-.025-.35a44.31 44.31 0 01-.033-.493l-.017-.28a49.117 49.117 0 01-.036-.775l-.005-.141a50.456 50.456 0 01-.027-2.449c.07-4.724.834-9.184 2.087-12.976 1.86 3.173 2.974 8.185 2.974 13.693 0 5.508-1.113 10.52-2.973 13.693-.959-2.9-1.63-6.188-1.925-9.687zm12.498 21.327c-3.725 0-7.15-3.458-9.497-8.817 2.683-3.297 4.43-9.578 4.43-16.516 0-6.939-1.747-13.22-4.43-16.516 2.347-5.36 5.772-8.818 9.497-8.818 6.84 0 12.667 11.654 12.667 25.334s-5.826 25.333-12.666 25.333z" fill="#262626"/></svg>