<svg width="18" height="17" fill="none" xmlns="http://www.w3.org/2000/svg"><circle cx="9.057" cy="8.064" r="7.564" fill="#CA0100" stroke="#fff"/><g clip-path="url(#clip0_2157_25624)"><path d="M9.224 10.79a.88.88 0 01-1.205 0L6.152 9.007a.789.789 0 010-1.151.88.88 0 011.205 0L8.47 8.918c.084.08.22.08.304 0l3.012-2.879a.88.88 0 011.206 0c.16.153.25.36.25.576 0 .216-.09.423-.25.576l-3.768 3.6z" fill="#fff"/></g><defs><clipPath id="clip0_2157_25624"><path fill="#fff" transform="translate(5.902 4.908)" d="M0 0h7.339v7.013H0z"/></clipPath></defs></svg>