<svg width="33" height="20" fill="none" xmlns="http://www.w3.org/2000/svg"><path d="M21.446 9.998c0 2.652-2.219 4.802-4.955 4.802s-4.955-2.15-4.955-4.802c0-2.652 2.219-4.802 4.955-4.802s4.955 2.15 4.955 4.802zM16.5 0c-2.833.013-5.77.71-8.55 2.046a21.79 21.79 0 00-5.822 4.288C1.271 7.252.177 8.581 0 10c.02 1.229 1.324 2.745 2.128 3.666 1.638 1.728 3.597 3.144 5.822 4.289A19.856 19.856 0 0016.5 20c2.836-.013 5.772-.719 8.549-2.046a21.8 21.8 0 005.823-4.29c.857-.917 1.951-2.246 2.128-3.665-.02-1.228-1.324-2.744-2.128-3.665-1.638-1.728-3.598-3.143-5.823-4.288A19.97 19.97 0 0016.5 0zm-.002 2.483c4.293 0 7.773 3.366 7.773 7.518 0 4.152-3.48 7.517-7.773 7.517-4.293 0-7.774-3.366-7.774-7.518 0-4.151 3.48-7.517 7.774-7.517z" fill="#E1E1E1"/></svg>