<svg width="38" height="38" fill="none" xmlns="http://www.w3.org/2000/svg"><circle cx="19" cy="19" r="19" fill="#EFF0F0"/><path d="M11.534 19.24a7.405 7.405 0 01.25-2.941c.894-3.052 3.7-5.296 7.028-5.336V8.97c0-.111.139-.17.23-.103l4.104 3.016a.127.127 0 010 .202l-4.1 3.015c-.095.067-.23.008-.23-.103v-1.99a5.373 5.373 0 00-4.86 3.293 5.3 5.3 0 00.756 5.41c.364.455.277 1.12-.194 1.464a1.03 1.03 0 01-1.417-.198 7.318 7.318 0 01-1.567-3.736zm11.85-3.832a5.285 5.285 0 011.17 3.06 5.336 5.336 0 01-.415 2.35 5.366 5.366 0 01-4.86 3.293v-1.99c0-.111-.138-.17-.23-.104l-4.104 3.016c-.067.052-.067.155 0 .202l4.1 3.016c.096.067.23.008.23-.103v-1.995c3.329-.035 6.139-2.28 7.03-5.335a7.51 7.51 0 00.249-2.94 7.28 7.28 0 00-1.564-3.736 1.03 1.03 0 00-1.417-.198 1.024 1.024 0 00-.19 1.464z" fill="#CA0100"/></svg>