<svg width="38" height="38" fill="none" xmlns="http://www.w3.org/2000/svg"><circle cx="19" cy="19" r="19" fill="#EFF0F0"/><path d="M13.699 19.744c-1.21 0-2.175-.41-2.897-1.232-.722-.822-1.083-1.939-1.083-3.35 0-1.395.36-2.503 1.083-3.325.722-.822 1.688-1.232 2.897-1.232 1.209 0 2.174.41 2.897 1.232.722.822 1.083 1.93 1.083 3.326 0 1.41-.361 2.527-1.083 3.349-.723.821-1.688 1.232-2.897 1.232zm9.35-9h2.425L14.971 27.256h-2.426l10.504-16.512zm-9.35 7c1.052 0 1.578-.86 1.578-2.581 0-1.706-.526-2.559-1.578-2.559s-1.578.853-1.578 2.559c0 1.72.526 2.581 1.578 2.581zm10.598 9.651c-1.225 0-2.198-.41-2.92-1.232-.723-.838-1.084-1.954-1.084-3.35 0-1.395.361-2.503 1.084-3.325.737-.822 1.71-1.232 2.92-1.232 1.209 0 2.174.41 2.896 1.232.723.822 1.084 1.93 1.084 3.326 0 1.41-.361 2.527-1.084 3.349-.722.821-1.687 1.232-2.896 1.232zm0-2c1.052 0 1.578-.86 1.578-2.581 0-1.706-.526-2.558-1.578-2.558-1.068 0-1.602.852-1.602 2.558 0 1.72.534 2.581 1.602 2.581z" fill="#CA0100"/></svg>