<svg width="18" height="18" fill="none" xmlns="http://www.w3.org/2000/svg"><g clip-path="url(#clip0_2157_33606)"><path d="M17.554 7.326l-1.607-.193a7.174 7.174 0 00-.714-1.729l.999-1.27a.52.52 0 00-.041-.672l-1.656-1.656a.522.522 0 00-.672-.04l-1.272 1a7.075 7.075 0 00-1.725-.713L10.674.446A.522.522 0 0010.17 0H7.829a.52.52 0 00-.504.446l-.193 1.607a7.131 7.131 0 00-1.726.713l-1.271-.998a.522.522 0 00-.672.04L1.807 3.465a.522.522 0 00-.039.672l.998 1.27a7.113 7.113 0 00-.713 1.728l-1.606.192A.521.521 0 000 7.831v2.341c0 .248.2.473.447.504l1.606.193c.165.61.404 1.19.714 1.725l-.998 1.271a.523.523 0 00.041.673l1.653 1.656a.523.523 0 00.672.041l1.271-1c.536.31 1.115.55 1.727.713l.193 1.606a.52.52 0 00.503.446h2.342a.52.52 0 00.503-.446l.193-1.606a7.148 7.148 0 001.726-.713l1.272.998a.522.522 0 00.672-.04l1.655-1.657a.521.521 0 00.04-.673l-.999-1.27a7.12 7.12 0 00.714-1.726l1.606-.193a.52.52 0 00.447-.503V7.83c0-.25-.2-.475-.446-.504zM9 13.499A4.5 4.5 0 119 4.5a4.5 4.5 0 010 9z" fill="#262626"/></g><defs><clipPath id="clip0_2157_33606"><path fill="#fff" d="M0 0h18v18H0z"/></clipPath></defs></svg>