<svg width="38" height="38" fill="none" xmlns="http://www.w3.org/2000/svg"><circle cx="19" cy="19" r="19" fill="#EFF0F0"/><path d="M10.844 19.55v6.724c0 .619.503 1.121 1.12 1.121h5.605V19.55h-6.725zm15.687-4.484h-3.546c.254-.174.473-.346.625-.5a2.343 2.343 0 000-3.298c-.878-.886-2.41-.884-3.287 0-.487.487-1.776 2.472-1.597 3.798h-.081c.177-1.326-1.112-3.31-1.597-3.798-.879-.884-2.41-.884-3.288 0a2.346 2.346 0 000 3.297c.153.155.371.328.626.501H10.84c-.618 0-1.121.503-1.121 1.121v1.681c0 .31.25.56.56.56h7.285v-2.241h2.242v2.242h7.285a.56.56 0 00.56-.56v-1.682a1.12 1.12 0 00-1.12-1.12zm-9.033-.037s-.047.037-.207.037c-.774 0-2.253-.805-2.736-1.291a1.223 1.223 0 010-1.717 1.19 1.19 0 011.698 0c.756.76 1.506 2.701 1.245 2.971zm2.58.037c-.159 0-.206-.036-.206-.037-.26-.27.49-2.211 1.245-2.971.452-.456 1.242-.458 1.699 0a1.22 1.22 0 010 1.717c-.483.486-1.962 1.291-2.738 1.291zm-.273 4.484v7.845h5.604a1.12 1.12 0 001.12-1.12v-6.726h-6.724z" fill="#CA0100"/></svg>