<svg width="19" height="19" fill="none" xmlns="http://www.w3.org/2000/svg"><path d="M13.656 5.938h2.375a.596.596 0 00.594-.594V1.78a.596.596 0 00-.594-.593h-2.375a.595.595 0 00-.594.593v1.19h-1.888A1.787 1.787 0 009.5 1.78c-.772 0-1.425.499-1.674 1.188H5.938V1.78a.595.595 0 00-.594-.593H2.969a.595.595 0 00-.594.593v3.563c0 .326.267.593.594.593h2.375a.595.595 0 00.593-.593V4.156h1.889c.178.505.576.897 1.08 1.08v8.533a1.787 1.787 0 00-1.08 1.08H5.938v-1.187a.596.596 0 00-.594-.594H2.969a.596.596 0 00-.594.594v3.563c0 .326.267.593.594.593h2.375a.595.595 0 00.593-.593v-1.188h1.889A1.776 1.776 0 009.5 17.225c.778 0 1.425-.5 1.674-1.188h1.889v1.188c0 .326.267.593.593.593h2.375a.595.595 0 00.594-.593v-3.563a.596.596 0 00-.594-.594h-2.375a.596.596 0 00-.594.594v1.188h-1.888a1.787 1.787 0 00-1.08-1.08V5.236a1.787 1.787 0 001.08-1.08h1.889v1.187c0 .326.267.593.593.593zm.594-3.563h1.188V4.75H14.25V2.375zM4.75 4.75H3.562V2.375H4.75V4.75zm0 11.875H3.562V14.25H4.75v2.375zm9.5-2.375h1.188v2.375H14.25V14.25zM9.5 16.031a.595.595 0 01-.594-.593c0-.327.267-.594.594-.594.327 0 .594.267.594.594a.595.595 0 01-.594.593zm0-11.875a.595.595 0 01-.594-.593c0-.327.267-.594.594-.594.327 0 .594.267.594.594a.596.596 0 01-.594.593z" fill="#262626"/></svg>