<svg width="19" height="19" fill="none" xmlns="http://www.w3.org/2000/svg"><g clip-path="url(#clip0_2157_39222)"><path fill="#fff" d="M0 0h19v19H0z"/><path d="M13.264 7.757a.864.864 0 00-1.221 0L9.579 10.22a1.644 1.644 0 00-2.024 1.602c0 .908.737 1.646 1.644 1.646a1.648 1.648 0 001.602-2.026l2.463-2.463a.864.864 0 000-1.222z" fill="#262626"/><path d="M16.22 4.456C12.515.752 6.486.751 2.779 4.456c-3.2 3.202-3.695 8.25-1.18 12.006a.864.864 0 001.436-.962 7.72 7.72 0 01-1.259-3.436h.813a.864.864 0 000-1.728h-.816a7.78 7.78 0 011.641-4l.588.588a.861.861 0 001.222 0 .864.864 0 000-1.222l-.59-.59a7.743 7.743 0 014.038-1.663v.816a.864.864 0 001.728 0v-.808a7.738 7.738 0 013.966 1.655l-.59.59a.864.864 0 001.222 1.222l.587-.588a7.779 7.779 0 011.642 4h-.815a.864.864 0 100 1.728h.812a7.719 7.719 0 01-1.26 3.436.864.864 0 001.436.962c2.517-3.756 2.02-8.805-1.18-12.006z" fill="#262626"/><path d="M13.394 15.594H5.606a.864.864 0 000 1.728h7.788a.864.864 0 000-1.728z" fill="#262626"/></g><defs><clipPath id="clip0_2157_39222"><path fill="#fff" d="M0 0h19v19H0z"/></clipPath></defs></svg>