<svg width="79" height="79" fill="none" xmlns="http://www.w3.org/2000/svg"><circle cx="39.5" cy="39.5" r="39.5" fill="#fff"/><path d="M52.8 31h-1.934a7.87 7.87 0 00.334-2.4c0-3.088-2.512-5.6-5.6-5.6-2.595 0-4.328 2.371-5.446 4.936C39.05 25.512 37.23 23 34.4 23a5.606 5.606 0 00-5.6 5.6c0 .954.126 1.742.334 2.4H27.2a3.203 3.203 0 00-3.2 3.2v3.2c0 1.765 1.435 3.2 3.2 3.2v11.2c0 1.765 1.435 3.2 3.2 3.2h19.2c1.765 0 3.2-1.435 3.2-3.2V40.6c1.765 0 3.2-1.435 3.2-3.2v-3.2c0-1.765-1.435-3.2-3.2-3.2zm-7.2-4.8c1.323 0 2.4 1.077 2.4 2.4 0 2.4-1.002 2.4-1.6 2.4h-3.965c.818-2.522 2.005-4.8 3.165-4.8zM32 28.6c0-1.323 1.077-2.4 2.4-2.4 1.42 0 2.742 2.44 3.517 4.8H33.6c-.598 0-1.6 0-1.6-2.4zm-4.8 5.6h11.2v3.2H27.2v-3.2zm3.2 17.6V40.6h8v11.2h-8zm19.2 0h-8V40.6h8v11.2zm-8-14.4v-3.064l.027-.136H52.8l.002 3.2H41.6z" fill="#262626"/></svg>