<svg width="23" height="23" fill="none" xmlns="http://www.w3.org/2000/svg"><circle cx="11.5" cy="11.5" r="11" fill="#CA0100" stroke="#fff"/><g clip-path="url(#clip0_2157_31374)"><path d="M11.737 15.388a1.256 1.256 0 01-1.718 0l-2.663-2.545a1.125 1.125 0 010-1.642 1.256 1.256 0 011.718 0l1.587 1.516c.12.114.314.114.434 0l4.296-4.105a1.256 1.256 0 011.718 0c.228.218.356.513.356.821 0 .308-.128.604-.356.821l-5.372 5.134z" fill="#fff"/></g><defs><clipPath id="clip0_2157_31374"><path fill="#fff" transform="translate(7 7)" d="M0 0h10.465v10H0z"/></clipPath></defs></svg>