<svg width="22" height="21" fill="none" xmlns="http://www.w3.org/2000/svg"><path d="M1.328 11.451v7.96c0 .732.596 1.326 1.327 1.326h6.633v-9.286h-7.96zm18.57-5.306h-4.197c.301-.205.56-.41.74-.592a2.773 2.773 0 000-3.903c-1.04-1.048-2.852-1.046-3.89 0-.576.577-2.102 2.926-1.89 4.495h-.096c.21-1.569-1.316-3.918-1.89-4.495-1.04-1.046-2.853-1.046-3.891 0a2.776 2.776 0 00-.002 3.903c.182.183.44.387.742.592H1.327A1.33 1.33 0 000 7.472v1.99c0 .366.297.663.663.663h8.623V7.472h2.653v2.653h8.623a.664.664 0 00.663-.663v-1.99c0-.73-.594-1.327-1.327-1.327zm-10.69-.043s-.056.043-.246.043c-.916 0-2.666-.952-3.238-1.528a1.447 1.447 0 010-2.032 1.413 1.413 0 012.01 0c.894.9 1.783 3.197 1.474 3.517zm3.053.043c-.188 0-.244-.042-.244-.043-.309-.32.58-2.618 1.474-3.517.535-.54 1.47-.543 2.01 0 .557.56.557 1.472 0 2.032-.572.576-2.322 1.528-3.24 1.528zm-.323 5.306v9.286h6.632c.733 0 1.327-.594 1.327-1.326v-7.96h-7.96z" fill="#CA0100"/></svg>