<svg width="18" height="20" fill="none" xmlns="http://www.w3.org/2000/svg"><path d="M.45 16.85H3.6v2.7a.436.436 0 00.45.45H6.4a.444.444 0 00.45-.45v-2.7h7.101a.438.438 0 00.324-.127.438.438 0 00.126-.323v-1.8a.437.437 0 00-.126-.323.438.438 0 00-.324-.127H6.848v-1.66h4.782c1.874 0 3.405-.571 4.591-1.715C17.407 9.632 18 8.155 18 6.345c0-1.809-.593-3.285-1.779-4.43C15.035.772 13.504.2 11.63.2H4.05a.44.44 0 00-.323.126A.44.44 0 003.6.65v8.845H.45a.445.445 0 00-.45.45v2.095c0 .132.042.24.127.324a.437.437 0 00.323.126H3.6v1.66H.45a.438.438 0 00-.323.127A.437.437 0 000 14.6v1.8c0 .131.042.239.127.323a.437.437 0 00.323.127zM6.848 3.196h4.5c.994 0 1.795.29 2.405.871.61.582.914 1.341.914 2.278 0 .938-.305 1.698-.914 2.278-.61.582-1.411.873-2.405.873h-4.5v-6.3z" fill="#CA0100"/></svg>