<svg width="21" height="19" fill="none" xmlns="http://www.w3.org/2000/svg"><path d="M4.504 10.342c-1.368 0-2.46-.465-3.278-1.395C.409 8.017 0 6.754 0 5.157 0 3.58.409 2.326 1.226 1.396 2.043.465 3.136 0 4.504 0s2.46.465 3.278 1.395c.817.93 1.226 2.184 1.226 3.763 0 1.596-.409 2.86-1.226 3.79-.818.93-1.91 1.394-3.278 1.394zM15.084.158h2.745L5.943 18.842H3.198L15.084.158zM4.504 8.079c1.19 0 1.785-.974 1.785-2.921 0-1.93-.595-2.895-1.785-2.895s-1.786.965-1.786 2.895c0 1.947.595 2.921 1.786 2.921zM16.496 19c-1.386 0-2.487-.465-3.304-1.395-.818-.947-1.226-2.21-1.226-3.79 0-1.578.408-2.832 1.226-3.762.835-.93 1.936-1.395 3.304-1.395 1.368 0 2.46.465 3.278 1.395.817.93 1.226 2.184 1.226 3.763 0 1.596-.409 2.86-1.226 3.79-.817.93-1.91 1.394-3.278 1.394zm0-2.263c1.19 0 1.786-.974 1.786-2.921 0-1.93-.596-2.895-1.786-2.895-1.208 0-1.812.965-1.812 2.895 0 1.947.604 2.92 1.812 2.92z" fill="#CA0100"/></svg>