<svg width="30" height="19" fill="none" xmlns="http://www.w3.org/2000/svg"><path d="M11.784 11.105c0 2.556-.499 4.51-1.497 5.864C9.29 18.323 7.828 19 5.904 19c-1.9 0-3.353-.664-4.36-1.993C.54 15.68.025 13.775 0 11.296V7.894c0-2.58.503-4.54 1.509-5.876C2.523.681 3.98.013 5.88.013c1.9 0 3.354.664 4.36 1.992 1.005 1.32 1.52 3.22 1.544 5.7v3.4zm-3.46-3.73c0-1.532-.2-2.645-.6-3.339-.39-.702-1.005-1.053-1.844-1.053-.814 0-1.417.334-1.808 1.002-.383.66-.587 1.697-.61 3.11v4.493c0 1.506.19 2.627.574 3.363.391.728 1.014 1.092 1.868 1.092.846 0 1.457-.351 1.833-1.054.375-.702.57-1.777.586-3.224v-4.39zm5.76-3.555c0-1.134.347-2.052 1.042-2.754C15.82.356 16.73 0 17.856 0c1.142 0 2.06.351 2.755 1.053.694.694 1.042 1.638 1.042 2.83v.915c0 1.142-.348 2.06-1.042 2.754-.695.694-1.605 1.04-2.73 1.04-1.134 0-2.053-.346-2.755-1.04-.695-.703-1.042-1.646-1.042-2.83V3.82zm2.3.978c0 .507.135.918.406 1.23.28.305.643.458 1.09.458.447 0 .803-.157 1.066-.47.264-.313.395-.732.395-1.256v-.94c0-.507-.131-.918-.395-1.23-.263-.314-.627-.47-1.09-.47-.439 0-.794.156-1.066.47-.271.304-.407.731-.407 1.281v.927zm6.035 9.417c0-1.142.351-2.06 1.054-2.754.703-.702 1.613-1.053 2.73-1.053 1.134 0 2.049.346 2.743 1.04.703.686 1.054 1.633 1.054 2.843v.914c0 1.134-.343 2.052-1.03 2.754-.687.694-1.6 1.041-2.742 1.041-1.15 0-2.072-.351-2.767-1.053-.694-.703-1.042-1.633-1.042-2.793v-.939zm2.3.99c0 .466.143.863.43 1.193.288.33.647.495 1.078.495.975 0 1.462-.571 1.462-1.713v-.965c0-.508-.136-.914-.408-1.218-.271-.313-.63-.47-1.077-.47-.448 0-.807.157-1.078.47-.272.304-.407.723-.407 1.256v.952zm-6.156 2.158l-1.689-.965L25.39 1.955l1.689.964-8.515 14.444z" fill="#CA0100"/></svg>