<svg width="79" height="79" fill="none" xmlns="http://www.w3.org/2000/svg"><circle cx="39.5" cy="39.5" r="39.5" fill="#fff"/><path d="M43.2 25.03A2.03 2.03 0 0041.17 23h-2.338a2.03 2.03 0 00-2.032 2.03c0 .925-.634 1.719-1.496 2.058-.136.054-.272.112-.405.17-.85.368-1.859.256-2.515-.399a2.03 2.03 0 00-2.87 0l-1.655 1.655a2.03 2.03 0 000 2.87v0c.656.656.768 1.664.397 2.515-.058.134-.114.27-.168.405-.34.862-1.133 1.496-2.058 1.496A2.03 2.03 0 0024 37.83v2.34a2.03 2.03 0 002.03 2.03c.925 0 1.719.634 2.058 1.496.054.136.112.272.168.405.37.85.258 1.859-.397 2.515a2.03 2.03 0 000 2.87l1.655 1.655a2.03 2.03 0 002.87 0c.656-.656 1.664-.768 2.515-.399.133.06.269.116.405.17.862.34 1.496 1.133 1.496 2.058A2.03 2.03 0 0038.83 55h2.34a2.03 2.03 0 002.03-2.03c0-.925.634-1.719 1.496-2.06.136-.052.272-.108.405-.166.85-.371 1.859-.258 2.513.397a2.03 2.03 0 002.872 0l1.655-1.655a2.03 2.03 0 000-2.87v0c-.656-.656-.768-1.664-.399-2.515.06-.133.116-.269.17-.405.34-.862 1.133-1.496 2.058-1.496A2.03 2.03 0 0056 40.17v-2.338a2.03 2.03 0 00-2.03-2.03c-.925 0-1.719-.634-2.06-1.496-.053-.136-.11-.271-.168-.405-.368-.85-.256-1.86.399-2.515a2.03 2.03 0 000-2.87l-1.655-1.655a2.03 2.03 0 00-2.87 0v0c-.656.656-1.664.768-2.515.398a12.572 12.572 0 00-.405-.17c-.862-.34-1.496-1.134-1.496-2.057v-.002z" stroke="#262626" stroke-width="3"/><path d="M46.402 39a6.4 6.4 0 11-12.8 0 6.4 6.4 0 0112.8 0v0z" stroke="#262626" stroke-width="3"/></svg>