<svg width="79" height="79" fill="none" xmlns="http://www.w3.org/2000/svg"><circle cx="39.5" cy="39.5" r="39.5" fill="#fff"/><path d="M31.434 38.697c-1.954 0-3.515-.661-4.683-1.982C25.584 35.393 25 33.598 25 31.33c0-2.244.584-4.027 1.751-5.348C27.92 24.661 29.48 24 31.434 24c1.954 0 3.515.66 4.683 1.982 1.167 1.321 1.751 3.104 1.751 5.348 0 2.268-.584 4.063-1.751 5.385-1.168 1.321-2.729 1.982-4.683 1.982zm15.114-14.473h3.921L33.49 50.776h-3.92l16.98-26.552zM31.434 35.481c1.7 0 2.55-1.384 2.55-4.151 0-2.743-.85-4.114-2.55-4.114-1.7 0-2.55 1.371-2.55 4.114 0 2.767.85 4.15 2.55 4.15zM48.566 51c-1.98 0-3.553-.66-4.72-1.982-1.168-1.346-1.752-3.141-1.752-5.385 0-2.244.584-4.026 1.751-5.348 1.193-1.321 2.767-1.982 4.721-1.982 1.954 0 3.515.661 4.683 1.982C54.416 39.607 55 41.39 55 43.633c0 2.269-.584 4.064-1.751 5.385C52.08 50.339 50.52 51 48.566 51zm0-3.216c1.7 0 2.55-1.384 2.55-4.151 0-2.742-.85-4.114-2.55-4.114-1.726 0-2.589 1.372-2.589 4.114 0 2.767.863 4.15 2.589 4.15z" fill="#262626"/></svg>