<svg width="79" height="79" fill="none" xmlns="http://www.w3.org/2000/svg"><circle cx="39.5" cy="39.5" r="39.5" fill="#fff"/><path d="M64.288 34.268H51.393a.404.404 0 00-.403.403v2.418c0 .222.181.403.403.403h12.895a.404.404 0 00.403-.403v-2.418a.404.404 0 00-.403-.403zm-6.75 6.85h-6.145a.404.404 0 00-.403.404v2.417c0 .222.181.403.403.403h6.145a.404.404 0 00.403-.403v-2.417a.404.404 0 00-.403-.403zM40.73 29.76h-2.181a.563.563 0 00-.565.564v12.492c0 .181.086.348.232.453l7.5 5.47a.562.562 0 00.786-.12l1.294-1.768v-.005a.563.563 0 00-.126-.786l-6.381-4.614V30.324a.559.559 0 00-.56-.564z" fill="#262626"/><path d="M57.224 47.46h-2.912a.828.828 0 00-.7.388 16.17 16.17 0 01-2.241 2.806 15.977 15.977 0 01-11.349 4.7c-2.17 0-4.271-.424-6.246-1.26a15.976 15.976 0 01-5.102-3.44 15.976 15.976 0 01-4.7-11.349c0-2.17.424-4.266 1.26-6.245a15.974 15.974 0 013.44-5.103 15.974 15.974 0 0111.348-4.7c2.171 0 4.272.424 6.246 1.26a15.976 15.976 0 015.103 3.44 16.166 16.166 0 012.241 2.806.828.828 0 00.7.387h2.912a.46.46 0 00.413-.67 19.698 19.698 0 00-17.378-10.864c-10.885-.136-19.926 8.774-19.947 19.65C20.293 50.16 29.123 59 40.017 59c7.53 0 14.3-4.261 17.62-10.87a.462.462 0 00-.413-.67z" fill="#262626"/></svg>