<svg width="79" height="79" fill="none" xmlns="http://www.w3.org/2000/svg"><circle cx="39.5" cy="39.5" r="39.5" fill="#fff"/><path d="M54.821 26H24.18c-.652 0-1.179.548-1.179 1.227v24.546c0 .679.527 1.227 1.179 1.227h30.64c.652 0 1.179-.548 1.179-1.227V27.227c0-.679-.527-1.227-1.179-1.227zm-29.17 2.761h27.697v4.603H25.652V28.76zM53.349 50.24H25.652v-13.5h27.696v13.5zm-8.729-2.455h6.077a.302.302 0 00.295-.307v-2.761a.302.302 0 00-.295-.307H44.62a.302.302 0 00-.294.307v2.761c0 .169.132.307.294.307z" fill="#262626"/></svg>