<svg width="18" height="22" fill="none" xmlns="http://www.w3.org/2000/svg"><path d="M.056 11.77a8.38 8.38 0 01.282-3.327C1.35 4.99 4.526 2.45 8.292 2.406V.149c0-.126.157-.193.26-.117l4.644 3.413c.076.058.076.174 0 .228l-4.64 3.413c-.107.076-.26.009-.26-.117V4.717a6.08 6.08 0 00-5.499 3.726 5.998 5.998 0 00.855 6.122 1.156 1.156 0 01-.22 1.657 1.165 1.165 0 01-1.602-.224A8.281 8.281 0 01.056 11.77zm13.409-4.335a5.98 5.98 0 011.325 3.462c.05.95-.13 1.85-.47 2.66-.909 2.159-3.023 3.69-5.5 3.726v-2.252c0-.126-.156-.193-.26-.117l-4.643 3.413a.141.141 0 000 .228l4.64 3.413c.107.076.26.009.26-.117v-2.257c3.765-.04 6.945-2.58 7.953-6.037a8.463 8.463 0 00.282-3.327 8.238 8.238 0 00-1.769-4.228 1.166 1.166 0 00-1.603-.224 1.159 1.159 0 00-.215 1.657z" fill="#CA0100"/></svg>