<svg width="21" height="19" fill="none" xmlns="http://www.w3.org/2000/svg"><path d="M1.27 10.122v7.61c0 .7.569 1.268 1.268 1.268h6.341v-8.878H1.27zm17.754-5.073h-4.012a4.93 4.93 0 00.707-.567 2.651 2.651 0 000-3.731c-.994-1.002-2.726-1-3.72 0-.55.551-2.009 2.797-1.807 4.298h-.091c.2-1.5-1.258-3.747-1.808-4.298-.994-1-2.726-1-3.72 0a2.654 2.654 0 000 3.73c.173.176.42.371.708.568H1.268A1.27 1.27 0 000 6.317V8.22c0 .35.284.634.634.634h8.244V6.317h2.537v2.537h8.244c.35 0 .634-.284.634-.634V6.317a1.27 1.27 0 00-1.268-1.268zm-10.22-.042s-.054.042-.235.042c-.877 0-2.55-.91-3.096-1.461a1.383 1.383 0 010-1.943 1.34 1.34 0 01.961-.401c.362 0 .703.142.96.4.855.86 1.705 3.057 1.41 3.363zm2.919.042c-.18 0-.234-.04-.234-.042-.295-.306.555-2.502 1.41-3.362.51-.517 1.405-.52 1.921 0a1.381 1.381 0 010 1.943c-.546.55-2.22 1.46-3.097 1.46zm-.309 5.073V19h6.342c.7 0 1.268-.568 1.268-1.268v-7.61h-7.61z" fill="#CA0100"/></svg>