<svg width="18" height="20" fill="none" xmlns="http://www.w3.org/2000/svg"><path d="M.45 16.849H3.6v2.7a.436.436 0 00.45.45H6.4a.444.444 0 00.45-.45v-2.7h7.101a.438.438 0 00.324-.126.437.437 0 00.126-.324v-1.8a.437.437 0 00-.126-.323.438.438 0 00-.324-.127H6.848v-1.66h4.782c1.874 0 3.405-.57 4.591-1.715C17.407 9.631 18 8.154 18 6.344c0-1.808-.593-3.285-1.779-4.43C15.035.773 13.504.2 11.63.2H4.05a.44.44 0 00-.323.127A.44.44 0 003.6.65v8.846H.45a.445.445 0 00-.45.45v2.095c0 .131.042.239.127.323a.437.437 0 00.323.127H3.6v1.659H.45a.438.438 0 00-.323.127A.438.438 0 000 14.6v1.8c0 .131.042.239.127.324a.437.437 0 00.323.126zM6.848 3.195h4.5c.994 0 1.795.29 2.405.872.61.58.914 1.34.914 2.278 0 .937-.305 1.697-.914 2.278-.61.581-1.411.872-2.405.872h-4.5v-6.3z" fill="#CA0100"/></svg>