<svg width="25" height="25" fill="none" xmlns="http://www.w3.org/2000/svg"><path fill="#fff" d="M0 0h25v25H0z"/><path d="M24.219 9.375h-2.344a.781.781 0 00-.781.781v.781h-.782v-.78a.781.781 0 00-.78-.782h-1.24l-2.114-2.114a.788.788 0 00-.553-.23h-2.344V5.47h1.563a.781.781 0 100-1.563H7.813a.781.781 0 100 1.563h1.562v1.56H7.031c-.025 0-.046.012-.07.014a.752.752 0 00-.292.087.793.793 0 00-.235.195c-.016.02-.038.03-.053.053l-1.33 1.995H3.125a.781.781 0 00-.781.781V12.5h-.781v-2.344a.781.781 0 10-1.563 0v7.031a.781.781 0 101.563 0v-3.125h.78v3.126c0 .43.35.78.782.78h1.86l1.348 2.694a.777.777 0 00.14.194c.01.011.025.019.036.03a.774.774 0 00.254.153.777.777 0 00.267.055h9.376a.778.778 0 00.319-.071c.026-.012.045-.033.07-.047a.782.782 0 00.19-.151c.01-.01.023-.013.031-.024l2.891-3.613h1.187v.78c0 .432.349.782.781.782h2.344a.78.78 0 00.781-.781v-7.813a.781.781 0 00-.781-.781zm-.782 7.813h-.78v-.782a.781.781 0 00-.782-.781h-2.344c-.015 0-.027.008-.042.009-.053.003-.103.017-.155.03-.048.014-.096.024-.14.045-.04.02-.075.049-.113.075-.045.033-.09.064-.127.107-.01.01-.024.015-.033.027l-2.89 3.613H7.514l-1.347-2.693c-.017-.034-.047-.057-.069-.088-.032-.047-.061-.094-.103-.133-.038-.034-.08-.057-.124-.083-.042-.026-.081-.054-.129-.072-.054-.02-.11-.026-.169-.035-.035-.004-.067-.02-.104-.02H3.906v-5.47H5.47a.766.766 0 00.27-.054.767.767 0 00.267-.165c.014-.012.023-.026.035-.038.026-.03.055-.057.077-.09L7.45 8.594h2.707a.78.78 0 00.781-.781V5.469h.782v2.343c0 .432.349.782.781.782h2.802l2.114 2.114a.788.788 0 00.553.23h.781v.78c0 .432.35.782.781.782h2.344a.78.78 0 00.781-.781v-.781h.782v6.25z" fill="#262626"/><path d="M15.281 11.072a.782.782 0 00-1.085.21l-3.234 4.78-1.892-1.46a.78.78 0 10-.954 1.237l2.55 1.967a.776.776 0 00.602.153.78.78 0 00.523-.333l3.7-5.469a.782.782 0 00-.21-1.085z" fill="#262626"/></svg>