<svg width="39" height="39" fill="none" xmlns="http://www.w3.org/2000/svg"><path d="M19.5 39C8.744 39 0 30.256 0 19.5S8.744 0 19.5 0 39 8.744 39 19.5 30.256 39 19.5 39zm0-35.23c-8.674 0-15.753 7.056-15.753 15.753 0 8.675 7.056 15.753 15.753 15.753 8.674 0 15.753-7.055 15.753-15.753 0-8.697-7.079-15.753-15.753-15.753z" fill="#fff"/><path d="M17.3 27.992c-.509 0-.972-.185-1.319-.555l-4.395-4.395a1.896 1.896 0 01-.555-1.319c0-.509.185-.971.555-1.318a1.896 1.896 0 011.319-.556c.486 0 .971.186 1.318.556l2.846 2.845c.069.07.138.092.23.092a.297.297 0 00.232-.092l9.461-9.461a1.896 1.896 0 011.319-.555c.485 0 .971.185 1.318.555.74.74.74 1.92 0 2.66L18.62 27.46a1.873 1.873 0 01-1.32.533z" fill="#fff"/></svg>