<svg width="57" height="75" fill="none" xmlns="http://www.w3.org/2000/svg"><path d="M52.044 72.938v-3.547h3.717c.681 0 1.239-.557 1.239-1.239V1.41c0-.682-.558-1.24-1.24-1.24L6.197 0c-.682 0-1.24.558-1.24 1.24v3.717H1.24C.558 4.957 0 5.514 0 6.196v66.742c0 .682.558 1.24 1.24 1.24h49.564c.682 0 1.24-.558 1.24-1.24zM7.434 2.478l47.088.17v64.265h-2.478V18.494c0-.046-.016-.108-.016-.155-.015-.046-.031-.108-.047-.155 0-.015-.015-.03-.015-.03-.016-.047-.03-.094-.062-.14v-.016c-.03-.046-.046-.093-.093-.139l-.03-.031a.417.417 0 00-.11-.124L39.282 5.313c-.047-.031-.078-.078-.124-.109l-.031-.03-.14-.094h-.015c-.047-.015-.093-.046-.14-.062-.015 0-.03-.015-.046-.015-.047-.016-.109-.031-.155-.046-.047-.016-.108-.016-.155-.016H7.435V2.478zm40.38 14.87h-8.162V9.185l8.163 8.163zm1.751 54.351H2.478V7.435h34.696v11.152c0 .681.557 1.24 1.239 1.24h11.152v51.872z" fill="#262626"/><path d="M29.737 42.13c0-.681-.557-1.24-1.239-1.24H9.911c-.682 0-1.24.559-1.24 1.24 0 .681.558 1.24 1.24 1.24h18.587c.681 0 1.24-.558 1.24-1.24zm-13.632 4.957h-3.717c-.682 0-1.24.558-1.24 1.24 0 .68.558 1.238 1.24 1.238h3.717c.681 0 1.24-.557 1.24-1.239 0-.681-.558-1.239-1.24-1.239zm4.962 0c-.681 0-1.239.558-1.239 1.24 0 .68.558 1.238 1.24 1.238h1.238c.682 0 1.24-.557 1.24-1.239 0-.681-.558-1.239-1.24-1.239h-1.239zm4.949 1.239c0 .682.557 1.24 1.239 1.24h11.152c.682 0 1.24-.558 1.24-1.24 0-.681-.558-1.239-1.24-1.239H27.255c-.682 0-1.24.558-1.24 1.24z" fill="#262626"/><path d="M35.193 53.53l-2.385 1.797a8.66 8.66 0 00-12.16-1.363c-3.732 2.974-4.336 8.426-1.362 12.159a8.66 8.66 0 0012.159 1.363 8.645 8.645 0 002.617-10.006l2.618-1.967c.542-.419.65-1.193.248-1.735a1.253 1.253 0 00-1.735-.248zm-9.17 13.382a6.194 6.194 0 01-6.195-6.195 6.194 6.194 0 016.196-6.196c1.858 0 3.624.837 4.801 2.293l-4.693 3.516-1.72-1.72c-.48-.48-1.27-.48-1.75 0s-.48 1.27 0 1.75l2.479 2.479c.434.434 1.13.48 1.626.108l5.22-3.918c.93 3.283-.976 6.706-4.275 7.651a6.17 6.17 0 01-1.688.232z" fill="#CA0100"/><path d="M32.219 42.13c0 .681.557 1.24 1.239 1.24h8.674c.681 0 1.239-.558 1.239-1.24 0-.681-.558-1.24-1.24-1.24h-8.673c-.682 0-1.24.559-1.24 1.24zm7.434 17.348c-.681 0-1.239.558-1.239 1.24 0 .68.558 1.238 1.24 1.238h3.717c.681 0 1.239-.557 1.239-1.239 0-.681-.558-1.239-1.24-1.239h-3.717zm-1.239 6.196c0 .682.558 1.24 1.24 1.24h6.195c.681 0 1.239-.558 1.239-1.24 0-.681-.558-1.239-1.24-1.239h-6.195c-.681 0-1.239.558-1.239 1.24z" fill="#262626"/><path d="M38.703 27.292l-4.399-1.1-2.23-4.445a1.245 1.245 0 00-1.115-.681H18.567c-.464 0-.898.263-1.115.681l-2.246 4.492-3.237 1.084c-.511.17-.852.635-.852 1.177v4.957c0 .681.558 1.24 1.24 1.24h2.694a3.711 3.711 0 007.001 0h6.63a3.711 3.711 0 004.74 2.26 3.718 3.718 0 002.26-2.26h2.727c.682 0 1.24-.559 1.24-1.24V28.5c0-.573-.388-1.068-.946-1.208zm-7.249-1.27h-5.436v-2.478h4.197l1.24 2.478zm-12.112-2.478h4.198v2.478h-5.437l1.239-2.478zm-.76 11.152c-.68 0-1.238-.557-1.238-1.239 0-.681.557-1.24 1.239-1.24s1.24.559 1.24 1.24c0 .681-.558 1.24-1.24 1.24zm13.631 0a1.243 1.243 0 01-1.239-1.239c0-.681.558-1.24 1.24-1.24.68 0 1.239.559 1.239 1.24 0 .681-.558 1.24-1.24 1.24zm4.957-2.478h-1.456a3.711 3.711 0 00-4.74-2.262 3.719 3.719 0 00-2.261 2.262h-6.63a3.711 3.711 0 00-4.74-2.262 3.718 3.718 0 00-2.26 2.262h-1.457v-2.82l2.68-.898h16.992l3.872.96v2.758z" fill="#CA0100"/></svg>