<svg width="76" height="76" fill="none" xmlns="http://www.w3.org/2000/svg"><path d="M61.468 66.079l-2.82-8.506c-.986-2.955-3.538-5.149-6.582-5.731l-8.193-1.477v-.627c1.433-.806 2.642-1.925 3.627-3.224h2.462a3.688 3.688 0 003.671-3.67V28.158c0-8.774-7.118-15.893-15.893-15.893s-15.893 7.12-15.893 15.895v8.551a4.858 4.858 0 003.895 4.79c.672 3.537 2.865 6.492 5.91 8.238v.627l-8.193 1.477c-3.09.582-5.596 2.73-6.581 5.73l-.493 1.478-4.163-4.164a1.216 1.216 0 010-1.746l4.835-4.835-9.088-9.043-5.462 5.462A8.501 8.501 0 000 50.768C0 53.05.895 55.2 2.507 56.81l16.52 16.52a8.501 8.501 0 006.044 2.507 8.464 8.464 0 005.999-2.462l5.954-5.462-1.88-1.835h26.324zM51.216 42.844c0 .671-.538 1.208-1.21 1.208h-1.029c.358-.806.627-1.656.806-2.552.537-.09.985-.313 1.477-.582v1.925h-.044zm-1.21-4.03v-4.208a2.427 2.427 0 011.21 2.104c0 .895-.493 1.701-1.21 2.104zm-24.488 0a2.427 2.427 0 01-1.209-2.104c0-.895.493-1.701 1.21-2.104v4.208zm0-8.237v1.388c-.447.134-.85.268-1.209.492v-4.343c0-7.431 6.044-13.475 13.476-13.475 7.432 0 13.475 6.044 13.475 13.476v4.342a4.047 4.047 0 00-1.208-.492v-1.388h-1.254c-3.626 0-7.029-1.388-9.58-3.985l-1.433-1.432-1.433 1.432c-2.551 2.552-5.954 3.985-9.58 3.985h-1.254zm2.462 8.595v-6.178a15.88 15.88 0 009.805-4.342 15.881 15.881 0 009.804 4.342v6.178a9.5 9.5 0 01-1.343 4.88h-8.461v2.462h6.447c-1.746 1.523-3.985 2.463-6.447 2.463-5.417-.045-9.804-4.432-9.804-9.805zm13.476 11.685v.045l-3.671 3.67-3.671-3.67v-.045c1.164.358 2.373.582 3.67.582 1.255-.045 2.508-.224 3.672-.582zm-22.25 7.521a6.147 6.147 0 014.7-4.074l8.551-1.567 5.328 5.328 5.327-5.328 8.551 1.567a6.147 6.147 0 014.701 4.074l1.746 5.283H32.77l-4.745-4.745-5.282 4.79c-.448.447-1.254.447-1.746 0L18.31 61.02l.895-2.642zM7.969 42.71l5.596 5.596-1.343 1.343-5.596-5.596 1.343-1.343zm21.444 28.92a6.057 6.057 0 01-4.342 1.792 6.133 6.133 0 01-4.343-1.791L4.253 55.11a6.057 6.057 0 01-1.79-4.342c0-1.657.626-3.179 1.79-4.343l.672-.671 5.596 5.596-.045.044a3.675 3.675 0 000 5.194l8.775 8.819a3.694 3.694 0 002.596 1.075c.985 0 1.925-.403 2.552-1.03l.09-.09 5.64 5.641-.716.627zm2.507-2.282l-5.64-5.641 1.611-1.478 5.596 5.596-1.567 1.523zM72.028 0H54.882a3.688 3.688 0 00-3.671 3.671v9.804a3.688 3.688 0 003.671 3.671h3.268l-1.253 7.387 11.819-7.387h3.313a3.688 3.688 0 003.67-3.67V3.67A3.688 3.688 0 0072.03 0zm1.21 13.475c0 .672-.538 1.21-1.21 1.21H68l-7.79 4.834.851-4.835h-6.178a1.204 1.204 0 01-1.209-1.209V3.671c0-.671.538-1.209 1.209-1.209h17.146c.672 0 1.21.538 1.21 1.209v9.804z" fill="#262626"/><path d="M70.825 4.88H56.14v2.462h14.684V4.88zm-4.88 4.924h-9.804v2.463h9.804V9.804zm4.877 0h-2.463v2.463h2.463V9.804zM37.785 3.67c-15.983 0-29.771 11.058-33.353 26.504l-2.328-3.85L0 27.531l4.298 7.163 7.163-4.298-1.254-2.104-3.313 1.97C10.342 16.16 23.056 6.087 37.784 6.087c3.224 0 6.403.492 9.447 1.433l.716-2.328A34.097 34.097 0 0037.785 3.67zm37.34 23.415l-7.163-4.298-4.298 7.163 2.104 1.254 2.149-3.582a32.039 32.039 0 011.701 10.297c0 7.297-2.507 14.416-7.118 20.012l1.88 1.522c4.925-6.089 7.656-13.744 7.656-21.579 0-3.76-.582-7.387-1.791-10.879l3.581 2.15 1.299-2.06z" fill="#CA0100"/></svg>