<svg width="78" height="78" fill="none" xmlns="http://www.w3.org/2000/svg"><path d="M23.009 33.386v.045c-.18 3.358 1.701 6.492 4.79 8.014h.045a5.89 5.89 0 012.552 2.462v.045c1.567 2.955 4.79 4.79 8.237 4.611h.045c1.254-.09 2.507.269 3.537.94a8.945 8.945 0 009.536 0 6.185 6.185 0 013.536-.94h.045c3.447.18 6.67-1.612 8.237-4.611a5.89 5.89 0 012.552-2.462h.045c3.09-1.523 4.97-4.656 4.79-8.014v-.045a5.494 5.494 0 01.94-3.313c1.926-2.82 1.926-6.536 0-9.312a5.494 5.494 0 01-.94-3.313v-.044c.18-3.358-1.7-6.492-4.79-8.014h-.045a5.89 5.89 0 01-2.551-2.462v-.045c-1.567-2.955-4.79-4.79-8.238-4.611h-.045c-1.253.09-2.507-.269-3.536-.94a8.945 8.945 0 00-9.536 0 6.185 6.185 0 01-3.537.94h-.045c-3.447-.18-6.67 1.611-8.237 4.611a5.89 5.89 0 01-2.552 2.462h-.045c-3.089 1.522-4.97 4.656-4.79 8.014v.045a5.495 5.495 0 01-.94 3.313c-1.925 2.82-1.925 6.536 0 9.311.671.94.985 2.105.94 3.313zm1.433-11.013a8.409 8.409 0 001.432-5.148v-.045a5.525 5.525 0 013.179-5.238h.044a8.589 8.589 0 003.85-3.716v-.044c1.03-1.97 3.224-3.18 5.507-3.045h.045c1.835.09 3.671-.358 5.238-1.343a5.996 5.996 0 016.447 0c1.567.985 3.402 1.478 5.238 1.343h.044c2.328-.134 4.477 1.075 5.507 3.045v.044a8.59 8.59 0 003.85 3.716h.045c2.06.985 3.268 3.044 3.178 5.238v.045a8.41 8.41 0 001.433 5.148 5.326 5.326 0 010 6.044 8.41 8.41 0 00-1.433 5.148v.045c.135 2.194-1.119 4.253-3.178 5.238a8.589 8.589 0 00-3.85 3.716c-1.03 1.97-3.224 3.179-5.507 3.044h-.045c-1.835-.09-3.67.358-5.238 1.343a5.996 5.996 0 01-6.446 0c-1.433-.895-3.09-1.388-4.746-1.388H38.5c-2.283.135-4.432-1.03-5.507-3.044v-.044a8.59 8.59 0 00-3.85-3.716h-.044c-2.06-.985-3.269-3.045-3.18-5.238v-.045a8.408 8.408 0 00-1.432-5.148c-1.298-1.747-1.298-4.12-.044-5.955z" fill="#CA0100"/><path d="M52.248 31.102c.09.314.269.582.537.717.18.134.403.179.627.179.403 0 .761-.224.985-.537l8.282-13.386c.224-.358.224-.806.045-1.164-.18-.359-.582-.627-.985-.627h-.045c-.403 0-.76.224-.985.537l-8.327 13.386a1.053 1.053 0 00-.134.895z" fill="#262626"/><path d="M53.73 24.611c1.97 0 3.582-1.79 3.582-4.029 0-2.194-1.612-4.029-3.582-4.029-1.97 0-3.582 1.79-3.582 4.03 0 2.238 1.612 4.028 3.582 4.028zm0-5.685c.672 0 1.254.76 1.254 1.7 0 .896-.583 1.702-1.254 1.702-.672 0-1.254-.76-1.254-1.701 0-.94.582-1.701 1.254-1.701zm-19.548 12.62h-2.497V19.233L28 20.518V18.36l5.862-2.201h.32v15.387zM35.854 35l-1.352-.822c.4-.639.671-1.197.816-1.674.151-.47.23-.951.237-1.443v-1.99h2.26l-.01 1.842c-.007.745-.193 1.49-.557 2.233-.358.752-.823 1.37-1.394 1.854zm9.628-9.869c-.84.906-1.82 1.359-2.942 1.359-1.32 0-2.374-.47-3.158-1.411-.784-.948-1.177-2.191-1.177-3.729 0-1.01.2-1.927.599-2.749.4-.821.967-1.46 1.703-1.916.736-.457 1.59-.685 2.56-.685 1.513 0 2.714.576 3.602 1.727C47.556 18.88 48 20.42 48 22.351v.716c0 2.767-.612 4.877-1.837 6.33-1.225 1.453-3.052 2.19-5.48 2.212h-.3v-2.117h.361c1.48-.021 2.615-.383 3.406-1.085.791-.71 1.235-1.801 1.332-3.276zm-2.415-.642c.502 0 .973-.148 1.413-.442a2.9 2.9 0 001.022-1.222v-1c0-1.131-.227-2.04-.68-2.729-.455-.688-1.043-1.032-1.766-1.032-.722 0-1.3.306-1.734.917-.426.603-.64 1.369-.64 2.296 0 .961.217 1.737.65 2.327.434.59 1.012.885 1.735.885zm14.683 3.167c0 2.193 1.612 4.029 3.581 4.029 1.97 0 3.582-1.79 3.582-4.03 0-2.193-1.612-4.029-3.581-4.029-1.97 0-3.582 1.836-3.582 4.03zm3.581 1.656c-.671 0-1.253-.761-1.253-1.701 0-.896.582-1.701 1.253-1.701.672 0 1.254.76 1.254 1.7 0 .941-.582 1.702-1.254 1.702zm16.164 27.31c-1.925-3.403-6.178-4.701-9.625-2.955l-11.327 5.372a9.21 9.21 0 00-7.88-4.835l-10.475-.268a10.964 10.964 0 01-4.746-1.21l-1.074-.536c-5.462-2.82-11.953-2.82-17.37 0l.044-2.418c0-.806-.626-1.477-1.387-1.477l-11.461-.403c-.806 0-1.478.627-1.478 1.388L0 74.485c0 .805.627 1.477 1.388 1.477l11.46.313h.045c.761 0 1.433-.627 1.433-1.388l.045-1.208 3-1.612a5.122 5.122 0 013.805-.403l17.773 4.97c.045 0 .045 0 .09.044 1.298.269 2.596.403 3.894.403 2.776 0 5.552-.582 8.059-1.746.044-.045.134-.045.179-.09l25.787-16.698a1.45 1.45 0 00.537-1.925zm-65.99 16.743l-8.595-.224.627-22.25 8.595.224-.626 22.25zm38.233-.626c-3.134 1.432-6.67 1.79-10.028 1.119l-17.729-4.97c-2.014-.582-4.118-.313-5.954.672l-1.522.806.403-14.819a15.863 15.863 0 0116.162-.85l1.074.537c1.88.94 3.895 1.477 6 1.567l10.475.268c2.955.09 5.417 2.194 6.044 5.06l-15.58-.448c-.806 0-1.477.626-1.477 1.388 0 .76.627 1.477 1.388 1.477l17.19.492h.046c.76 0 1.432-.626 1.432-1.387 0-.627-.044-1.254-.134-1.88l11.595-5.507h.045c1.656-.851 3.626-.538 5.014.716L49.738 72.739z" fill="#262626"/></svg>