<svg width="85" height="85" fill="none" xmlns="http://www.w3.org/2000/svg"><path d="M83.629 76.773h-8.226V24.668c0-9.084-7.369-16.454-16.451-16.454h-3.034C52.131.792 43.031-2.138 35.628 1.667a15.1 15.1 0 00-6.546 6.547h-3.034c-9.082 0-16.451 7.37-16.451 16.454v52.105H1.37c-.753 0-1.37.617-1.37 1.371v5.485C0 84.383.617 85 1.371 85h82.258c.754 0 1.371-.617 1.371-1.371v-5.485c0-.754-.617-1.371-1.371-1.371zM58.952 10.956c7.574 0 13.71 6.136 13.71 13.712v52.105h-5.485c-.137-2.28-.6-4.525-1.37-6.667V53.463c0-6.822-5.519-12.34-12.34-12.34h-4.112v-3.034a15.192 15.192 0 007.18-7.936h1.046a5.478 5.478 0 005.483-5.485 5.478 5.478 0 00-5.483-5.485V15.07c0-1.389-.206-2.777-.583-4.114h1.954zM28.259 69.917l6.855 6.856h-8.997a16.146 16.146 0 012.142-6.856zm10.694 6.856l-9.117-9.118a16.332 16.332 0 012.176-2.177l9.511 9.598c.531.531 1.405.549 1.937 0l9.51-9.598a16.332 16.332 0 012.177 2.177l-9.117 9.118h-7.077zm6.563-14.792c1.834.343 3.599.994 5.21 1.92L42.5 72.128l-3.547-3.582 6.563-6.565zm-8.5 4.628l-2.742-2.742A16.347 16.347 0 0141.9 61.69l-4.884 4.92zm19.725 3.308a16.483 16.483 0 012.21 6.856h-9.03l6.82-6.856zm4.953 6.856c-.892-10.558-10.18-18.408-20.754-17.5-9.322.789-16.708 8.193-17.496 17.5h-2.742c.96-12.084 11.516-21.1 23.597-20.14 10.745.858 19.28 9.393 20.137 20.14h-2.742zm-39.758-23.31c0-5.296 4.3-9.598 9.596-9.598h4.833l5.072 6.341c.48.583 1.337.686 1.92.206.086-.069.154-.137.206-.206l5.072-6.341h1.525l-9.7 9.7a24.75 24.75 0 00-18.524 10.97V53.463zm5.74-26.053h-.257a2.75 2.75 0 01-2.742-2.742 2.75 2.75 0 012.742-2.742v2.742c0 .926.086 1.834.257 2.742zm2.485-6.855h8.757a10.6 10.6 0 007.695-3.291 10.6 10.6 0 007.694 3.29h.532v4.114c0 6.822-5.518 12.34-12.339 12.34-6.82 0-12.339-5.518-12.339-12.34v-4.113zM42.5 39.75c1.388 0 2.776-.206 4.113-.583v2.846L42.5 47.156l-4.113-5.142v-2.846c1.337.377 2.725.583 4.113.583zm20.565 24.784a24.855 24.855 0 00-10.968-9.118l8.414-8.433a9.662 9.662 0 012.553 6.479v11.072zM49.2 54.405a24.585 24.585 0 00-4.85-.856l9.597-9.599c1.56.103 3.05.566 4.387 1.371L49.2 54.407zm8.38-29.737v-2.742a2.75 2.75 0 012.742 2.742 2.75 2.75 0 01-2.742 2.742h-.257c.171-.908.257-1.816.257-2.742zM42.5 2.73c6.82 0 12.339 5.52 12.339 12.34v2.743h-.532a7.834 7.834 0 01-6.546-3.496 1.376 1.376 0 00-2.28 0 7.857 7.857 0 01-6.546 3.496h-8.774V15.07c0-6.822 5.518-12.34 12.339-12.34zM12.339 24.67c0-7.577 6.135-13.713 13.71-13.713h1.953a14.552 14.552 0 00-.583 4.114v4.113a5.478 5.478 0 00-5.483 5.485 5.478 5.478 0 005.483 5.485h1.046a15.192 15.192 0 007.18 7.936v3.033h-4.113c-6.82 0-12.338 5.52-12.338 12.34v16.644a24.472 24.472 0 00-1.303 6.667H12.34V24.668zm69.92 57.589H2.741v-2.743h79.516v2.743z" fill="#262626"/></svg>