<svg width="77" height="76" fill="none" xmlns="http://www.w3.org/2000/svg"><g clip-path="url(#clip0_2157_34648)"><path d="M46.651 17.606c.392 0 .769-.151 1.07-.437l10.307-10.31a1.52 1.52 0 000-2.141 1.518 1.518 0 00-2.14 0l-10.307 10.31a1.52 1.52 0 000 2.14c.302.287.678.438 1.07.438zm-17.372-.437c.301.301.678.437 1.07.437s.768-.151 1.07-.437a1.52 1.52 0 000-2.14L21.112 4.717a1.518 1.518 0 00-2.14 0 1.52 1.52 0 000 2.14l10.307 10.31zm9.22.437c.829 0 1.507-.679 1.507-1.508V7.552c0-.83-.678-1.508-1.507-1.508-.829 0-1.507.679-1.507 1.508v8.531c0 .844.678 1.523 1.507 1.523zM37.114 2.08c.241.588.844.965 1.462.935a1.507 1.507 0 00.843-2.698 1.542 1.542 0 00-1.763-.06 1.515 1.515 0 00-.542 1.823z" fill="#CA0100"/><path d="M69.493 40.321L53.957 21.088l.06-.995-.542.346h-10.85c-.135 0-.286.03-.421.076l-8.409 2.427-8.543-2.337c-.543.769-1.115 1.508-1.326 1.749-.452.527-14.21 18.63-15.34 20.108l6.103 8.23a5.345 5.345 0 003.36 8.968c-.045.272-.06.543-.06.814 0 1.432.557 2.774 1.567 3.769a5.301 5.301 0 003.767 1.567h.06v.106c0 1.432.558 2.773 1.567 3.768a5.301 5.301 0 003.767 1.568c.287 0 .558-.03.83-.06a5.394 5.394 0 001.536 3.255 5.33 5.33 0 003.767 1.568 5.305 5.305 0 003.767-1.568l.814-.814.347.272a5.307 5.307 0 003.707 1.492 5.305 5.305 0 003.767-1.568 5.364 5.364 0 001.567-3.858 5.395 5.395 0 003.857-1.553 5.364 5.364 0 001.567-3.859 5.24 5.24 0 003.858-1.567 5.364 5.364 0 001.567-3.86 5.324 5.324 0 003.858-1.567 5.35 5.35 0 00.708-6.677l4.897-10.25.362-.317zM16.949 55.983a2.311 2.311 0 010-3.271l1.838-1.84c.06-.06.12-.105.181-.15a2.414 2.414 0 011.25-.513h.046c.06 0 .136-.015.196-.015.633.015 1.22.272 1.657.724.86.904.814 2.382-.105 3.286l-1.778 1.779c-.92.904-2.38.904-3.285 0zm6.374 6.813a2.314 2.314 0 01-2.32-2.322c0-.618.24-1.205.677-1.643l3.572-3.572a2.344 2.344 0 012.637-.452c.904.422 1.401 1.402 1.28 2.396a2.482 2.482 0 01-.693 1.402l-3.51 3.497a2.267 2.267 0 01-1.643.694zm7.037 4.763a2.314 2.314 0 01-1.643.678 2.314 2.314 0 01-2.32-2.321c0-.618.241-1.206.678-1.643l3.571-3.572c.739-.724 1.899-.89 2.803-.362a2.298 2.298 0 011.1 2.336 2.36 2.36 0 01-.693 1.357l-3.496 3.527zm7.91 2.97l-1.777 1.778a2.31 2.31 0 01-3.27 0 2.311 2.311 0 010-3.27l1.838-1.84c.06-.06.12-.105.181-.15a2.382 2.382 0 011.025-.483h.03c.06-.015.136-.015.196-.03h.241c.633.015 1.22.271 1.657.723.06.06.106.121.151.181.678.875.588 2.231-.271 3.09zm23.116-15.09a2.31 2.31 0 01-3.27 0 .659.659 0 00-.105-.09l-9.705-9.812a1.518 1.518 0 00-2.14-.015 1.52 1.52 0 00-.014 2.14l9.81 9.918a2.311 2.311 0 01-1.643 3.95 2.313 2.313 0 01-1.643-.679l-6.57-6.632a1.518 1.518 0 00-2.14-.015 1.52 1.52 0 00-.014 2.14l6.464 6.527c.03.045.075.075.106.12a2.311 2.311 0 010 3.272c-.905.904-2.381.904-3.27 0l-3.587-3.618a1.518 1.518 0 00-2.14-.015 1.52 1.52 0 00-.014 2.14l3.48 3.528c.03.045.076.075.106.12a2.311 2.311 0 010 3.271 2.31 2.31 0 01-3.27 0c-.105-.105-.226-.18-.346-.271-.106-.076-.121-.12-.076-.242.045-.12.12-.226.18-.346a3.56 3.56 0 00.152-.422 5.516 5.516 0 00.195-2.322 5.25 5.25 0 00-2.26-3.677 5.467 5.467 0 00-2.245-.875c.392-1.718-.075-3.572-1.296-4.853a5.333 5.333 0 00-3.797-1.673h-.166c.03-1.387-.467-2.759-1.431-3.769a5.333 5.333 0 00-3.798-1.673c-.437 0-.874.045-1.28.136a5.339 5.339 0 00-1.764-3.241 5.232 5.232 0 00-3.405-1.296 5.333 5.333 0 00-3.646 1.371l-5.832-7.868L24.98 23.65l4.446 1.221-5.817 10.265a5.293 5.293 0 00-.497 4.055 5.292 5.292 0 002.516 3.225c.076.046.151.09.241.121 0 0 .016 0 .016.015.21.106.421.196.632.272 1.01.346 2.11.391 3.165.09a5.29 5.29 0 003.225-2.517l3.782-6.663 6.75.483 17.962 17.967c.89.89.89 2.367-.015 3.256zm.618-6.918L45.157 31.67c-.03-.03-.06-.06-.105-.09a1.496 1.496 0 00-.86-.347l-8.257-.588a1.511 1.511 0 00-1.416.769l-4.234 7.491c-.302.543-.8.92-1.402 1.086a2.32 2.32 0 01-1.763-.211 2.261 2.261 0 01-1.085-1.402 2.32 2.32 0 01.211-1.764l5.666-10.008 2.29-.664c.015 0 .03-.015.046-.015l8.574-2.472h10.367L66.118 39.9l-4.114 8.622z" fill="#262626"/><path d="M76.681 32.242L63.798 15.495a1.504 1.504 0 00-2.005-.346l-8.318 5.29h-.873l.587 3.015L66.118 39.9l2.999.739 7.353-6.331c.618-.513.708-1.417.211-2.065zm-8.574 5.29L56.143 22.325l6.102-3.89L73.426 32.95l-5.319 4.583zm-41.57-16.58l-1.477-.407-8.483-5.396a1.516 1.516 0 00-1.99.331L.333 33.131a1.513 1.513 0 00.196 2.096l7.473 6.436 1.04 1.387 1.99-2.382L25 23.65l1.537-2.698zM8.922 38.467l-5.32-4.582 12.492-15.48 6.103 3.873-13.275 16.19z" fill="#CA0100"/></g><defs><clipPath id="clip0_2157_34648"><path fill="#fff" d="M0 0h77v76H0z"/></clipPath></defs></svg>