<svg width="87" height="84" fill="none" xmlns="http://www.w3.org/2000/svg"><path d="M52.39 83.003c-1.103 0-2.242-.05-3.346-.17-7.814-.764-15.17-4.264-20.725-9.819a33.877 33.877 0 01-7.764-11.993.22.22 0 00-.22-.153H8.256a1.472 1.472 0 01-1.46-1.461c0-.799.662-1.461 1.46-1.461h11.008c.068 0 .153-.034.187-.102a.18.18 0 00.034-.204 33.368 33.368 0 01-1.053-6.49c0-.118-.119-.22-.238-.22h-7.56c-.798 0-1.46-.663-1.46-1.461 0-.799.662-1.461 1.46-1.461h7.51a.232.232 0 00.237-.238 34.88 34.88 0 01.832-6.49.223.223 0 00-.05-.203.273.273 0 00-.188-.085H1.462A1.472 1.472 0 010 39.53c0-.798.663-1.461 1.461-1.461h18.483a.235.235 0 00.22-.17 33.992 33.992 0 012.99-6.49.204.204 0 000-.237c-.05-.068-.118-.12-.203-.12h-9.904a1.471 1.471 0 01-1.461-1.46c0-.799.662-1.461 1.46-1.461h12.215c.068 0 .153-.034.187-.085a32.405 32.405 0 012.87-3.245 33.934 33.934 0 0116.615-9.14c.102-.016.187-.118.187-.237v-4.28c0-.12-.068-.205-.187-.239a5.508 5.508 0 01-4.196-5.368A5.539 5.539 0 0146.275 0h12.232a5.539 5.539 0 015.538 5.538 5.526 5.526 0 01-4.197 5.368c-.101.034-.186.12-.186.238v4.315c0 .119.085.204.187.238 6.319 1.393 12.078 4.57 16.665 9.156a34.186 34.186 0 019.819 20.709c.764 7.695-1.121 15.476-5.3 21.931a1.479 1.479 0 01-1.224.663c-.288 0-.56-.085-.798-.238a1.466 1.466 0 01-.629-.918 1.427 1.427 0 01.204-1.104c7.95-12.248 6.218-28.642-4.128-38.97-5.878-5.878-13.71-9.106-22.033-9.106-8.324 0-16.156 3.228-22.034 9.106-5.877 5.878-9.105 13.692-9.105 22.033 0 8.324 3.228 16.156 9.105 22.034 5.861 5.86 13.71 9.105 22.102 9.105a31.004 31.004 0 0016.92-4.994c.238-.153.51-.238.798-.238.493 0 .951.255 1.223.662.442.68.255 1.58-.424 2.022-5.538 3.567-11.96 5.453-18.62 5.453zm-4.11-71.927a.232.232 0 00-.238.238v3.567c0 .068.034.136.085.187.05.034.102.068.153.068h.034a33.196 33.196 0 014.11-.255c1.36 0 2.719.085 4.06.238h.035c.05 0 .119-.017.153-.068a.273.273 0 00.085-.187v-3.567a.232.232 0 00-.238-.238h-8.24v.017zm-2.005-8.154a2.617 2.617 0 000 5.232h12.232a2.617 2.617 0 000-5.232H46.275z" fill="#262626"/><path d="M75.492 73.455c-.39 0-.764-.153-1.036-.425a1.465 1.465 0 01-.425-1.036c0-.39.153-.764.425-1.036a1.465 1.465 0 011.036-.425c.374 0 .765.153 1.036.425.272.272.425.645.425 1.036 0 .39-.153.764-.425 1.036a1.527 1.527 0 01-1.036.425z" fill="#262626"/><path d="M52.423 75.052c-14.406 0-26.11-11.721-26.11-26.11 0-14.406 11.721-26.11 26.11-26.11 14.406 0 26.11 11.721 26.11 26.11s-11.721 26.11-26.11 26.11zm0-49.316c-12.792 0-23.189 10.414-23.189 23.189s10.414 23.189 23.189 23.189S75.612 61.7 75.612 48.925 65.215 25.737 52.423 25.737z" fill="#CA0100"/><path d="M52.426 53.971a5.046 5.046 0 01-5.046-5.045c0-.782.17-1.53.527-2.226a.212.212 0 00-.051-.271l-3.772-3.772a1.466 1.466 0 010-2.055 1.465 1.465 0 011.037-.425c.39 0 .747.153 1.036.425l3.771 3.771a.218.218 0 00.17.068c.034 0 .068 0 .102-.017a5.043 5.043 0 012.226-.527c.781 0 1.529.17 2.225.527a.215.215 0 00.102.017.218.218 0 00.17-.068l8.409-8.409a1.465 1.465 0 011.036-.425c.39 0 .748.153 1.036.425.272.272.425.645.425 1.036s-.153.748-.425 1.036l-8.409 8.41a.266.266 0 00-.05.271c.34.697.526 1.444.526 2.226-.017 2.769-2.276 5.028-5.045 5.028zm0-7.152a2.124 2.124 0 10.001 4.249 2.124 2.124 0 00-.001-4.249zm16.582 3.603a1.472 1.472 0 01-1.461-1.461c0-.799.662-1.461 1.46-1.461h1.58c.8 0 1.462.662 1.462 1.46 0 .8-.663 1.462-1.461 1.462h-1.58zm-34.742-.052a1.472 1.472 0 01-1.461-1.461c0-.799.662-1.461 1.46-1.461h1.58c.799 0 1.462.662 1.462 1.46 0 .8-.663 1.462-1.462 1.462h-1.58zm18.179-16.563c-.798 0-1.46-.663-1.46-1.461v-1.58c0-.798.662-1.46 1.46-1.46.799 0 1.461.662 1.461 1.46v1.58c0 .798-.662 1.461-1.46 1.461zm-.039 34.757a1.472 1.472 0 01-1.46-1.46v-1.58c0-.799.662-1.461 1.46-1.461.799 0 1.461.662 1.461 1.46v1.58c-.017.799-.662 1.462-1.46 1.462zM1.461 60.868c-.39 0-.764-.153-1.036-.425a1.455 1.455 0 010-2.055 1.465 1.465 0 011.036-.425c.39 0 .764.153 1.036.425.272.271.425.645.425 1.036 0 .39-.153.764-.425 1.036a1.558 1.558 0 01-1.036.408z" fill="#262626"/></svg>