<svg width="98" height="72" fill="none" xmlns="http://www.w3.org/2000/svg"><path d="M77.547 71.07c-3.336 0-6.447-1.79-8.1-4.675a.392.392 0 00-.33-.195H29.154a.373.373 0 00-.33.195 9.255 9.255 0 01-3.427 3.427 9.406 9.406 0 01-4.659 1.247c-3.336 0-6.447-1.788-8.1-4.674a.392.392 0 00-.33-.195h-4.57c-.42 0-.796-.21-1.036-.556L.21 55.905c-.135-.21-.21-.45-.21-.691v-4.87c0-.33.135-.645.36-.87l2.766-2.766a.362.362 0 00.105-.27V40.62c0-.36.15-.706.436-.947l10.039-8.596c.075-.075.135-.165.135-.27a.4.4 0 00-.105-.286l-2.014-2.029c-.24-.24-.36-.54-.36-.871v-1.623c0-.677.556-1.233 1.232-1.233h38.308c1.743 0 3.471.601 4.824 1.699l14.006 11.21c.076.06.15.09.24.09h9.168c9.618.016 17.463 7.846 17.478 17.48v9.738c0 .676-.556 1.232-1.232 1.232h-9.423a.374.374 0 00-.33.195 9.255 9.255 0 01-3.427 3.427 9.551 9.551 0 01-4.659 1.232zm-.015-16.247c-3.787 0-6.883 3.081-6.883 6.883a6.882 6.882 0 006.883 6.883c3.787 0 6.868-3.095 6.883-6.883 0-3.787-3.08-6.883-6.883-6.883zm-56.808 0c-3.787 0-6.883 3.081-6.883 6.883a6.882 6.882 0 006.883 6.883c3.788 0 6.868-3.095 6.883-6.883-.015-3.787-3.095-6.883-6.883-6.883zm56.808-2.48a9.32 9.32 0 011.578.136c5.08.871 8.521 5.71 7.65 10.79a.412.412 0 00.09.316c.075.09.18.135.3.135h6.628c.21 0 .39-.165.39-.39v-8.116c0-.556-.03-1.112-.09-1.668a.377.377 0 00-.375-.346h-3.156c-.195 0-.376-.045-.556-.135l-6.492-3.246a1.236 1.236 0 01-.692-1.112V45.46c0-.677.556-1.233 1.248-1.233h4.298a.39.39 0 00.36-.255c.06-.15 0-.33-.12-.421a14.943 14.943 0 00-9.393-3.336H17.478c-.3 0-.586-.106-.811-.301a1.208 1.208 0 01-.421-.857c-.015-.33.09-.646.3-.901l9.003-10.295a.37.37 0 00.06-.406.38.38 0 00-.346-.225h-10.37c-.15 0-.3.09-.36.24s-.03.316.09.421l2.104 2.104a.33.33 0 01.06.075c.21.256.316.571.3.902-.03.33-.18.631-.435.842l-8.026 6.883a.372.372 0 00-.105.42.39.39 0 00.36.256h3.728c.676 0 1.232.556 1.232 1.232v3.246c0 .331-.135.647-.36.872l-3.247 3.246c-.24.24-.54.361-.871.361H5.155a.432.432 0 00-.27.105l-2.3 2.3a.362.362 0 00-.105.27v3.712c0 .075.015.15.06.21l5.74 8.612a.392.392 0 00.316.165h2.525c.12 0 .226-.045.3-.135a.396.396 0 00.09-.316 9.182 9.182 0 010-3.14 9.328 9.328 0 0110.791-7.65 9.267 9.267 0 016.057 3.817 9.322 9.322 0 011.593 6.988.412.412 0 00.09.316c.075.09.18.135.3.135H67.93c.12 0 .225-.045.3-.135a.396.396 0 00.09-.316 9.187 9.187 0 010-3.14 9.316 9.316 0 019.213-7.785zm8.116-5.635a.388.388 0 00-.391.39v.617c0 .15.075.285.21.345l5.26 2.63c.06.03.105.046.166.046h2.028c.12 0 .24-.06.316-.166a.357.357 0 00.045-.345c-.42-1.173-.977-2.3-1.668-3.337a.392.392 0 00-.316-.165h-5.65v-.015zm-79.531-4.87a.389.389 0 00-.391.391v3.247c0 .21.165.39.39.39h2.57a.432.432 0 00.271-.105l2.3-2.3a.362.362 0 00.105-.27v-.962c0-.21-.166-.39-.391-.39H6.117zm37.33-14.607c-.21 0-.39.165-.39.39v9.74c0 .21.165.39.39.39h21.341a.375.375 0 00.36-.256c.06-.15 0-.33-.12-.42l-10.835-8.672a5.403 5.403 0 00-3.276-1.157h-7.47v-.015zm-13.87 0a.37.37 0 00-.286.135l-8.522 9.739a.37.37 0 00-.06.405.38.38 0 00.346.226h19.146c.21 0 .391-.165.391-.39v-9.74c0-.21-.165-.39-.39-.39H29.575v.015z" fill="#262626"/><path d="M23.58 44.228h-4.103v2.48h4.102v-2.48zm29.234 0H48.71v2.48h4.103v-2.48zm-32.09 18.711a1.238 1.238 0 01-1.232-1.233c0-.676.556-1.232 1.232-1.232.677 0 1.233.556 1.233 1.232 0 .676-.556 1.233-1.233 1.233zm56.813 0a1.238 1.238 0 01-1.232-1.233c0-.676.556-1.232 1.232-1.232.676 0 1.232.556 1.232 1.232 0 .676-.54 1.233-1.232 1.233z" fill="#262626"/><path d="M46.843 22.378C48.826 11.03 58.745 2.375 70.663 2.375c13.33 0 24.18 10.85 24.18 24.18 0 4.704-1.352 9.093-3.681 12.805l1.758 1.638a26.423 26.423 0 004.283-14.443C97.203 11.903 85.301 0 70.663 0c-13.21 0-24.211 9.708-26.21 22.378h2.39z" fill="#CA0100"/><path d="M73.763 27.712h-3.367v2.404h-2.63v-2.404h-2.149v-2.134h2.15v-1.112h-2.15v-2.134h2.15v-7.44h5.815c1.684 0 3.021.436 4.028 1.308 1.007.872 1.503 2.044 1.503 3.487 0 1.472-.481 2.645-1.428 3.486-.962.842-2.284 1.278-3.983 1.293h-3.306v1.112h3.367v2.134zm-3.367-5.38h3.141c.947 0 1.668-.226 2.18-.662.495-.436.75-1.097.75-1.968 0-.782-.24-1.413-.736-1.909s-1.172-.752-2.028-.767h-3.307v5.306z" fill="#CA0100"/><path d="M52.364 22.378c1.548-8.792 9.242-15.48 18.47-15.48 10.34 0 18.755 8.417 18.755 18.756a18.6 18.6 0 01-3.336 10.656l2.104 1.172a21.068 21.068 0 003.622-11.828c0-11.662-9.498-21.16-21.16-21.16-10.55 0-19.327 7.77-20.905 17.884h2.45z" fill="#CA0100"/></svg>