<svg width="82" height="77" fill="none" xmlns="http://www.w3.org/2000/svg"><path d="M72.029 0H9.513C4.264 0 0 4.264 0 9.513v43.49c0 5.249 4.264 9.513 9.513 9.513h21.27L27.52 73.388h-4.416v2.718h35.334v-2.718h-4.416L50.76 62.516h21.269c5.25 0 9.513-4.264 9.513-9.514V9.513C81.542 4.264 77.278 0 72.03 0zM51.168 73.388H30.374l3.262-10.872h14.27l3.262 10.872zm27.656-20.386a6.793 6.793 0 01-6.795 6.795H9.513a6.793 6.793 0 01-6.795-6.795v-1.359h76.106v1.36zm0-4.077H2.718V9.513a6.793 6.793 0 016.795-6.795H72.03a6.793 6.793 0 016.795 6.795v39.412z" fill="#262626"/><path d="M57.077 19.027H53.68l-3.67-4.892a1.368 1.368 0 00-1.087-.544h-13.59c-.425 0-.832.204-1.087.544l-3.772 5.028-6.285 1.257a1.362 1.362 0 00-1.087 1.325v6.796c0 .747.611 1.359 1.359 1.359h4.332c.73 2.106 3.04 3.227 5.164 2.497a4.048 4.048 0 002.497-2.497h8.647c.73 2.106 3.04 3.227 5.164 2.497a4.048 4.048 0 002.498-2.497h4.314c.748 0 1.36-.612 1.36-1.36v-8.154c0-.747-.612-1.359-1.36-1.359zM32.615 29.9a1.363 1.363 0 01-1.36-1.36c0-.747.612-1.358 1.36-1.358.747 0 1.359.611 1.359 1.359 0 .747-.612 1.359-1.36 1.359zm16.308 0a1.363 1.363 0 01-1.359-1.36c0-.747.612-1.358 1.36-1.358.747 0 1.358.611 1.358 1.359 0 .747-.611 1.359-1.359 1.359zm6.795-2.718h-2.956c-.017-.051-.034-.085-.05-.136-.034-.068-.068-.153-.102-.221-.068-.153-.153-.289-.238-.442-.034-.068-.085-.136-.12-.204a8.333 8.333 0 00-.373-.458c-.034-.034-.05-.068-.085-.085a4.587 4.587 0 00-.543-.459c-.051-.034-.12-.068-.17-.102l-.459-.255c-.068-.034-.153-.068-.22-.102a2.372 2.372 0 00-.494-.153c-.067-.017-.152-.034-.22-.05a3.694 3.694 0 00-1.495 0c-.068.016-.153.033-.221.05a2.734 2.734 0 00-.714.255 3.1 3.1 0 00-.458.255c-.051.034-.12.068-.17.102a4.58 4.58 0 00-.544.459c-.034.034-.05.068-.085.085a3.377 3.377 0 00-.373.458c-.051.068-.085.136-.12.204a3.66 3.66 0 00-.237.442c-.034.068-.068.153-.102.22-.017.052-.034.086-.051.136h-8.63c-.017-.05-.034-.084-.05-.135-.035-.068-.069-.153-.103-.221-.068-.153-.153-.289-.238-.442-.034-.068-.085-.136-.119-.204-.119-.153-.237-.305-.373-.458-.034-.034-.051-.068-.085-.085a4.571 4.571 0 00-.544-.459c-.05-.034-.119-.068-.17-.102l-.458-.255c-.068-.034-.153-.068-.221-.102a2.37 2.37 0 00-.493-.153c-.068-.017-.153-.034-.22-.05a3.693 3.693 0 00-1.496 0c-.068.016-.153.033-.22.05a2.737 2.737 0 00-.714.255 3.1 3.1 0 00-.459.255c-.05.034-.119.068-.17.102a4.58 4.58 0 00-.543.459c-.034.034-.051.068-.085.085a3.378 3.378 0 00-.374.458c-.05.068-.085.136-.119.204-.085.136-.17.289-.238.442-.034.068-.068.153-.102.22-.016.052-.034.086-.05.136H25.82V22.85l5.708-1.139c.322-.067.611-.254.815-.51l3.67-4.892h12.23l3.67 4.893c.255.34.663.543 1.087.543h2.718v5.436zm-30.282-15.92a1.347 1.347 0 00-.969-.39h-5.436v2.718h4.876l3.686 3.686 1.92-1.92-4.077-4.094z" fill="#CA0100"/><path d="M76.107 8.155H65.234v2.718h10.873V8.155zm0 5.436H65.234v2.718h10.873v-2.718zm0 8.153H65.234v2.718h10.873v-2.718zm0 5.436H65.234v2.72h10.873v-2.72z" fill="#262626"/><path d="M57.077 10.872c-.357 0-.713.136-.968.39L53.39 13.98l1.92 1.92 2.327-2.31h4.875v-2.718h-5.436z" fill="#CA0100"/><path d="M16.31 8.155H5.438v2.718H16.31V8.155zm0 5.436H5.438v2.718H16.31v-2.718zm0 8.153H5.438v2.718H16.31v-2.718zm0 5.436H5.438v2.72H16.31v-2.72z" fill="#262626"/><path d="M13.592 36.694H8.156c-.748 0-1.36.612-1.36 1.36v5.435c0 .748.612 1.36 1.36 1.36h5.436c.747 0 1.36-.612 1.36-1.36v-5.436c0-.747-.613-1.359-1.36-1.359zm-1.359 5.436H9.515v-2.718h2.718v2.718zm17.663-6.795h-8.154c-.748 0-1.36.612-1.36 1.36v8.154c0 .747.612 1.359 1.36 1.359h8.154c.747 0 1.36-.612 1.36-1.36v-8.154c0-.747-.613-1.359-1.36-1.359zm-1.359 8.154h-5.436v-5.436h5.436v5.437zm14.953-6.795h-5.436c-.747 0-1.359.612-1.359 1.36v5.435c0 .748.612 1.36 1.36 1.36h5.435c.748 0 1.36-.612 1.36-1.36v-5.436c0-.747-.612-1.359-1.36-1.359zm-1.358 5.436h-2.719v-2.718h2.719v2.718zm16.304-5.436H53c-.748 0-1.36.612-1.36 1.36v5.435c0 .748.612 1.36 1.36 1.36h5.436c.747 0 1.359-.612 1.359-1.36v-5.436c0-.747-.612-1.359-1.36-1.359zm-1.36 5.436H54.36v-2.718h2.718v2.718zm16.313-5.436h-5.436c-.748 0-1.36.612-1.36 1.36v5.435c0 .748.612 1.36 1.36 1.36h5.436c.747 0 1.359-.612 1.359-1.36v-5.436c0-.747-.612-1.359-1.36-1.359zm-1.36 5.436h-2.717v-2.718h2.718v2.718zM50.284 8.155H31.258v2.718h19.026V8.155z" fill="#CA0100"/></svg>