<svg width="68" height="83" fill="none" xmlns="http://www.w3.org/2000/svg"><path d="M33.735 9.224H33.6a1.37 1.37 0 01-1.24-1.376 1.37 1.37 0 011.376-1.376 1.37 1.37 0 011.376 1.376 1.3 1.3 0 01-.407.969 1.296 1.296 0 01-.969.407z" fill="#262626"/><path d="M33.738 82.358c-.136 0-.272-.017-.39-.052-9.77-2.938-18.128-8.816-24.176-16.986C3.177 57.199 0 47.583 0 37.492V11.076A1.37 1.37 0 011.376 9.7C5.963 9.7 9.7 5.963 9.7 1.376A1.37 1.37 0 0111.076 0h45.307a1.37 1.37 0 011.376 1.376c0 4.587 3.737 8.324 8.324 8.324a1.37 1.37 0 011.376 1.376v26.4c0 10.21-3.228 19.91-9.326 28.046-6.048 8.07-14.355 13.863-24.004 16.768a.998.998 0 01-.391.067zM12.588 2.752a.238.238 0 00-.238.204c-.696 4.841-4.553 8.698-9.394 9.394a.238.238 0 00-.204.238v24.904c0 19.384 12.418 36.27 30.901 42.029.017 0 .051.016.068.016.017 0 .051 0 .068-.017 18.5-5.758 30.935-22.661 30.935-42.028V12.588a.238.238 0 00-.204-.238c-4.841-.696-8.698-4.553-9.394-9.394a.238.238 0 00-.238-.204h-42.3z" fill="#262626"/><path d="M33.734 75.545c-.153 0-.305-.034-.458-.085-7.934-2.803-14.66-7.882-19.452-14.66C9.018 54.005 6.47 45.935 6.47 37.492V16.206c0-.543.323-1.036.832-1.257a14.738 14.738 0 007.645-7.644c.22-.493.713-.833 1.257-.833h11.059a1.37 1.37 0 011.376 1.376 1.37 1.37 0 01-1.376 1.376h-10.04a.265.265 0 00-.22.136 17.574 17.574 0 01-7.662 7.662c-.085.034-.136.119-.136.22V37.51c0 15.884 9.581 29.695 24.428 35.182a.153.153 0 00.085.017c.034 0 .051 0 .085-.017 14.83-5.504 24.429-19.315 24.429-35.182V17.226a.265.265 0 00-.136-.221 17.574 17.574 0 01-7.661-7.662c-.034-.085-.12-.136-.221-.136h-10.04a1.37 1.37 0 01-1.376-1.376 1.37 1.37 0 011.376-1.376h11.059a1.37 1.37 0 011.257.833 14.738 14.738 0 007.645 7.644c.492.221.832.714.832 1.257v21.286c0 8.46-2.548 16.513-7.356 23.325-4.79 6.778-11.517 11.857-19.45 14.66-.12.068-.273.085-.426.085z" fill="#CA0100"/><path d="M33.743 52.253c-7.9 0-14.321-6.421-14.321-14.32 0-7.9 6.421-14.322 14.32-14.322 7.9 0 14.322 6.422 14.322 14.321 0 7.9-6.422 14.321-14.321 14.321zm0-25.872c-6.37 0-11.57 5.18-11.57 11.568 0 6.37 5.182 11.57 11.57 11.57 6.37 0 11.569-5.182 11.569-11.57 0-6.387-5.199-11.568-11.57-11.568z" fill="#CA0100"/><path d="M32.127 44.169c-.374 0-.713-.136-.968-.408l-3.228-3.228a1.392 1.392 0 01-.408-.968c0-.374.136-.713.408-.968.255-.255.612-.408.968-.408.357 0 .714.136.969.408l2.09 2.09a.218.218 0 00.17.067.218.218 0 00.169-.068l6.948-6.948c.255-.255.612-.408.968-.408.357 0 .714.136.969.408.543.544.543 1.41 0 1.954l-8.087 8.086c-.254.255-.611.39-.968.39z" fill="#CA0100"/></svg>