<svg width="19" height="18" fill="none" xmlns="http://www.w3.org/2000/svg"><path d="M5.03 10.185l1.414.836-1.841-3.655-4.124.123 1.332.79L0 11.63s1.454 2.636 2.446 4.21c.405.642.947 1.007 1.468 1.007h5.295v-3.818l-5.752-.002 1.572-2.842zm4.876-4.314l4.012.24 1.925-3.647-1.344.77L12.474.006s-3.01-.034-4.866.056c-.76.036-1.345.328-1.6.78L3.397 5.45 6.72 7.331l2.834-5.005 1.7 2.768-1.35.777zm8.624 4.657L16.013 5.87l-3.358 1.817 2.734 5.059-3.248-.031.05-1.471-2.327 3.188L11.933 18l.06-1.546 3.81-.002s1.628-2.534 2.538-4.153c.375-.663.437-1.313.19-1.771z" fill="#C2C2C4"/></svg>