<svg width="19" height="18" fill="none" xmlns="http://www.w3.org/2000/svg"><path d="M4.075 9.357c-1.238 0-2.226-.42-2.966-1.262C.37 7.254 0 6.111 0 4.667c0-1.429.37-2.564 1.11-3.405C1.848.42 2.836 0 4.074 0 5.313 0 6.3.42 7.04 1.262c.739.841 1.109 1.976 1.109 3.405 0 1.444-.37 2.587-1.11 3.428-.739.842-1.727 1.262-2.965 1.262zM13.647.143h2.484L5.377 17.048H2.893L13.647.143zM4.075 7.31c1.077 0 1.615-.881 1.615-2.643 0-1.746-.538-2.62-1.615-2.62s-1.616.874-1.616 2.62c0 1.762.539 2.643 1.616 2.643zm10.85 9.88c-1.254 0-2.25-.42-2.99-1.261-.74-.858-1.109-2-1.109-3.429 0-1.429.37-2.563 1.11-3.405.755-.841 1.751-1.262 2.99-1.262 1.237 0 2.225.421 2.965 1.262C18.63 9.937 19 11.071 19 12.5c0 1.444-.37 2.587-1.11 3.429-.739.84-1.727 1.261-2.965 1.261zm0-2.047c1.077 0 1.616-.881 1.616-2.643 0-1.746-.539-2.619-1.616-2.619-1.093 0-1.64.873-1.64 2.619 0 1.762.547 2.643 1.64 2.643z" fill="#CA0100"/></svg>