<svg width="26" height="9" fill="none" xmlns="http://www.w3.org/2000/svg"><g clip-path="url(#clip0_2157_32107)"><path fill-rule="evenodd" clip-rule="evenodd" d="M1.766 0l-.441 1.168h6.123L7.89 0H1.766zm-.663 1.752L.662 2.92h6.123l.442-1.168H1.103zM.442 3.504L0 4.672h6.124l.441-1.168H.442z" fill="#009FDF"/><mask id="mask0_2157_32107" style="mask-type:alpha" maskUnits="userSpaceOnUse" x="9" y="1" width="17" height="8"><path d="M9.188 8.93H25.95V1.774H9.187V8.93z" fill="#fff"/></mask><g mask="url(#mask0_2157_32107)"><path fill-rule="evenodd" clip-rule="evenodd" d="M13.019 5.117v.024c.28.1.547.273.687.384.433.347.624.805.624 1.4 0 .977-.535 1.683-1.413 1.906-.268.074-.547.099-1.07.099h-2.66V1.774h2.355c.484 0 .815.025 1.107.1.853.222 1.413.792 1.413 1.695 0 .483-.178.892-.47 1.164a1.787 1.787 0 01-.573.384zm-2.355.755v1.882h1.018c.306 0 .586-.025.79-.21.203-.186.292-.422.292-.731a1 1 0 00-.19-.619c-.217-.26-.485-.322-.943-.322h-.967zm-.013-1.238h.827c.255 0 .382 0 .51-.037.343-.1.56-.396.56-.805 0-.482-.23-.693-.56-.792-.14-.037-.28-.05-.56-.05h-.777v1.684zm5.893 4.296V2.975H14.42v-1.2h5.906l-.42 1.2H18.02V8.93h-1.477zm4.239 0V1.774h4.786l-.42 1.201h-2.902V4.56h1.183c.955 0 1.451.223 1.795.507.267.223.726.718.726 1.697 0 .965-.471 1.497-.866 1.77-.458.31-.942.396-1.922.396h-2.38zm1.464-1.2h1.107c.42 0 .675-.1.853-.323.089-.111.216-.31.216-.68 0-.372-.127-.632-.382-.818-.152-.111-.356-.173-.7-.173h-1.094v1.993z" fill="#fff"/></g></g><defs><clipPath id="clip0_2157_32107"><path fill="#fff" d="M0 0h26v9H0z"/></clipPath></defs></svg>