<svg width="17" height="15" fill="none" xmlns="http://www.w3.org/2000/svg"><path d="M13.813 12.042a3.191 3.191 0 01-3.188-3.188 3.191 3.191 0 013.188-3.187h1.77V4.25c0-.781-.635-1.417-1.416-1.417h-.709V1.417C13.458.635 12.823 0 12.042 0H2.125C1.075 0 .206.768.036 1.77.021 1.828 0 1.885 0 1.948V12.75c0 1.172.953 2.125 2.125 2.125h12.042c.781 0 1.416-.635 1.416-1.417v-1.416h-1.77zM1.416 2.125c0-.39.317-.708.708-.708h9.917v1.416H2.125a.709.709 0 01-.708-.708z" fill="#CA0100"/><path d="M16.469 6.73h-2.657a2.128 2.128 0 00-2.124 2.124c0 1.172.953 2.125 2.124 2.125h2.657a.531.531 0 00.531-.531V7.26a.531.531 0 00-.531-.53zm-2.657 2.832a.709.709 0 11.001-1.417.709.709 0 010 1.417z" fill="#CA0100"/></svg>