<svg width="18" height="23" fill="none" xmlns="http://www.w3.org/2000/svg"><path d="M.842 11.997a8.433 8.433 0 01.284-3.349c1.018-3.474 4.213-6.03 8.004-6.075V.302c0-.127.157-.194.261-.118l4.674 3.435a.145.145 0 010 .23l-4.67 3.434c-.108.076-.26.009-.26-.117V4.899A6.118 6.118 0 003.6 8.649a6.037 6.037 0 00.86 6.16 1.163 1.163 0 01-.22 1.668c-.51.374-1.222.27-1.614-.226a8.334 8.334 0 01-1.784-4.254zm13.493-4.363a6.02 6.02 0 011.334 3.484c.05.955-.13 1.861-.473 2.677-.915 2.172-3.042 3.714-5.535 3.75v-2.267c0-.126-.157-.194-.26-.117l-4.675 3.434c-.076.058-.076.176 0 .23l4.67 3.434c.108.076.261.009.261-.117V19.87c3.79-.04 6.99-2.596 8.004-6.075a8.516 8.516 0 00.284-3.348 8.29 8.29 0 00-1.78-4.255 1.173 1.173 0 00-1.614-.225 1.166 1.166 0 00-.216 1.667z" fill="#C2C2C4"/></svg>