<svg width="17" height="17" fill="none" xmlns="http://www.w3.org/2000/svg"><path d="M6.194 7.767c.4 0 .725-.318.725-.71a.718.718 0 00-.725-.712c-.4 0-.725.319-.725.711 0 .393.324.71.725.71zm4.609 2.884c.4 0 .726-.318.726-.71a.718.718 0 00-.726-.711c-.4 0-.725.318-.725.71 0 .393.325.711.725.711z" fill="#fff"/><path d="M16.782 9.439l-.264-.352a1.091 1.091 0 01-.01-1.292l.256-.356c.39-.543.21-1.299-.391-1.616l-.391-.206a1.097 1.097 0 01-.58-1.16l.075-.428c.114-.655-.388-1.261-1.067-1.289l-.444-.017a1.13 1.13 0 01-1.038-.798l-.125-.418c-.188-.64-.906-.972-1.532-.707l-.409.17A1.143 1.143 0 019.575.693L9.28.368a1.142 1.142 0 00-1.692.014l-.291.327c-.32.36-.836.478-1.284.296L5.601.838c-.63-.254-1.34.09-1.522.732l-.117.421c-.128.46-.54.787-1.024.812l-.444.024c-.68.039-1.17.652-1.046 1.307l.082.428c.09.467-.138.937-.561 1.167L.58 5.94a1.093 1.093 0 00-.363 1.62l.263.352c.285.383.292.902.011 1.292l-.256.356c-.39.543-.21 1.299.391 1.616l.391.206c.427.223.662.69.58 1.16l-.075.428c-.114.655.388 1.261 1.067 1.289l.444.017a1.13 1.13 0 011.038.798l.125.418c.188.64.906.972 1.532.707l.409-.17a1.143 1.143 0 011.287.278l.295.324a1.142 1.142 0 001.692-.014l.291-.327c.32-.36.836-.478 1.284-.296l.412.167c.63.254 1.34-.09 1.522-.732l.117-.421c.128-.46.54-.787 1.024-.812l.444-.024c.68-.039 1.17-.652 1.046-1.306l-.082-.429a1.097 1.097 0 01.562-1.167l.387-.212c.594-.32.764-1.08.363-1.62zM4.442 7.056c0-.947.782-1.714 1.749-1.714.967 0 1.75.767 1.75 1.714 0 .948-.783 1.714-1.75 1.714S4.441 8 4.441 7.056zm2.087 4.42a.434.434 0 01-.601.056.413.413 0 01-.057-.588l4.59-5.417a.434.434 0 01.6-.056.413.413 0 01.057.589l-4.59 5.417zm4.273.178c-.967 0-1.75-.766-1.75-1.714 0-.947.783-1.713 1.75-1.713s1.749.766 1.749 1.713c0 .948-.782 1.714-1.75 1.714z" fill="#fff"/></svg>