<svg width="18" height="23" fill="none" xmlns="http://www.w3.org/2000/svg"><path d="M.056 11.845A8.433 8.433 0 01.34 8.496c1.019-3.475 4.214-6.03 8.005-6.075V.15c0-.127.157-.194.26-.118l4.675 3.435a.145.145 0 010 .23L8.61 7.13c-.108.076-.261.009-.261-.118V4.747a6.118 6.118 0 00-5.534 3.75 6.037 6.037 0 00.86 6.16 1.163 1.163 0 01-.22 1.668c-.51.374-1.222.27-1.614-.226a8.334 8.334 0 01-1.785-4.254zM13.55 7.482a6.019 6.019 0 011.334 3.484c.05.955-.13 1.861-.473 2.677-.915 2.172-3.042 3.714-5.535 3.75v-2.267c0-.127-.157-.194-.261-.117L3.94 18.442a.145.145 0 000 .23l4.67 3.434c.108.076.26.009.26-.117v-2.272c3.791-.04 6.99-2.596 8.005-6.075a8.516 8.516 0 00.284-3.349 8.29 8.29 0 00-1.78-4.254 1.173 1.173 0 00-1.614-.225 1.166 1.166 0 00-.216 1.667z" fill="#fff"/></svg>