<svg width="19" height="18" fill="none" xmlns="http://www.w3.org/2000/svg"><path d="M19 7.925V1.944l-1.352.282a3.37 3.37 0 00-2.682 3.299V6.99h-2.943V4.467h.84V3.332c0-.799-.517-1.476-1.235-1.716V0h-1.114v1.585L9.5 2.832 8.486 1.585V0H7.372v1.616a1.809 1.809 0 00-1.236 1.716v1.135h.841v2.522H4.034V5.525a3.37 3.37 0 00-2.682-3.3L0 1.945v5.981a4.53 4.53 0 004.53 4.53h.967a3.137 3.137 0 00-1.119 2.402v.42H2.924L1.275 12.39l-.967.552 2.766 4.84.966-.553-.48-.84h1.931v-1.533c0-1.12.91-2.03 2.03-2.03v-.009l.718.479-1.131 2.899a3.676 3.676 0 004.784 0l-1.13-2.9.717-.478v.01c1.12 0 2.03.91 2.03 2.029v1.533h3.747c.962 0 1.744-.782 1.744-1.744s-.782-1.744-1.744-1.744a1.746 1.746 0 00-1.626 2.375h-1.008v-.42c0-.962-.435-1.824-1.118-2.401h.966A4.53 4.53 0 0019 7.926z" fill="#CA0100"/></svg>