<svg width="17" height="18" fill="none" xmlns="http://www.w3.org/2000/svg"><path d="M15.016 2.389h-4.982a1.78 1.78 0 00-1.267.524L1.72 9.96a1.78 1.78 0 00-.525 1.267c0 .479.187.928.525 1.267l4.983 4.982c.349.35.808.524 1.266.524.46 0 .918-.175 1.267-.524l7.047-7.047a1.78 1.78 0 00.525-1.266V4.18c0-.988-.804-1.791-1.792-1.791zM12.627 8.36a1.794 1.794 0 01-1.791-1.791c0-.988.803-1.792 1.791-1.792.988 0 1.792.804 1.792 1.792s-.804 1.791-1.792 1.791z" fill="#C2C2C4"/><path d="M13.82 0H8.839a1.78 1.78 0 00-1.267.525L.525 7.57A1.78 1.78 0 000 8.838c0 .375.114.731.326 1.03.14-.274.324-.528.549-.752L7.92 2.069a2.966 2.966 0 012.112-.875h4.982c.174 0 .344.016.51.045A1.794 1.794 0 0013.82 0z" fill="#C2C2C4"/></svg>