<svg width="11" height="12" fill="none" xmlns="http://www.w3.org/2000/svg"><g clip-path="url(#clip0_7901_484)"><path d="M5.5.001a3.989 3.989 0 00-3.984 3.984c0 2.727 3.565 6.73 3.717 6.899a.359.359 0 00.533 0c.152-.17 3.717-4.172 3.717-6.899A3.989 3.989 0 005.5.001zm0 5.989c-1.106 0-2.005-.9-2.005-2.005s.9-2.004 2.004-2.004c1.106 0 2.005.899 2.005 2.004 0 1.106-.9 2.005-2.005 2.005z" fill="#fff"/></g><defs><clipPath id="clip0_7901_484"><path fill="#fff" transform="translate(0 .001)" d="M0 0h11v11.002H0z"/></clipPath></defs></svg>