<svg width="9" height="10" fill="none" xmlns="http://www.w3.org/2000/svg"><g clip-path="url(#clip0_7901_471)"><path d="M8.798 8.055l-1.39-1.39a.725.725 0 00-1.021.019l-.7.7-.139-.077c-.442-.245-1.047-.58-1.684-1.218-.639-.639-.975-1.245-1.22-1.687l-.076-.135.47-.47.23-.231a.724.724 0 00.02-1.022l-1.39-1.39a.724.724 0 00-1.022.02l-.392.393.01.01c-.13.168-.24.362-.322.57a2.36 2.36 0 00-.144.578C-.155 4.246.54 5.637 2.427 7.523c2.608 2.609 4.71 2.412 4.8 2.402a2.349 2.349 0 001.147-.467l.009.008.397-.389a.725.725 0 00.018-1.022z" fill="#fff"/></g><defs><clipPath id="clip0_7901_471"><path fill="#fff" transform="translate(0 .942)" d="M0 0h9v9.001H0z"/></clipPath></defs></svg>