<svg width="15" height="15" fill="none" xmlns="http://www.w3.org/2000/svg"><path d="M.938 7.482v5.625c0 .517.42.937.937.937h4.688V7.482H.938zm13.125-3.75h-2.967a3.54 3.54 0 00.523-.42 1.96 1.96 0 000-2.757c-.735-.74-2.015-.739-2.75 0-.406.408-1.484 2.068-1.335 3.177h-.068c.148-1.11-.93-2.77-1.336-3.177-.735-.739-2.015-.739-2.75 0a1.962 1.962 0 000 2.758c.128.13.31.274.524.419H.938A.939.939 0 000 4.669v1.407c0 .258.21.468.469.468h6.093V4.67h1.875v1.875h6.094c.259 0 .469-.21.469-.468V4.669a.938.938 0 00-.938-.937zM6.506 3.7s-.04.03-.173.03c-.648.001-1.885-.672-2.289-1.079a1.023 1.023 0 010-1.436.996.996 0 011.42 0c.633.635 1.26 2.26 1.042 2.485zm2.158.03c-.133.001-.172-.029-.172-.03-.219-.226.41-1.85 1.041-2.485a1.022 1.022 0 011.42 0 1.02 1.02 0 010 1.436c-.403.407-1.64 1.08-2.289 1.08zm-.226 3.752v6.562h4.687c.518 0 .938-.42.938-.937V7.482H8.436z" fill="#fff"/></svg>