<svg width="20" height="20" fill="none" xmlns="http://www.w3.org/2000/svg"><rect x=".5" y=".5" width="19" height="19" rx="1.5" fill="#CA0100" stroke="#CA0100"/><g clip-path="url(#clip0_8023_7230)"><path d="M9.737 13.388a1.256 1.256 0 01-1.718 0l-2.663-2.545a1.125 1.125 0 010-1.642 1.256 1.256 0 011.718 0l1.587 1.516c.12.114.314.114.434 0l4.296-4.105a1.256 1.256 0 011.718 0c.228.218.356.513.356.821 0 .308-.128.604-.356.821l-5.372 5.134z" fill="#fff"/></g><defs><clipPath id="clip0_8023_7230"><path fill="#fff" transform="translate(5 5)" d="M0 0h10.465v10H0z"/></clipPath></defs></svg>