<svg width="33" height="39" fill="none" xmlns="http://www.w3.org/2000/svg"><path d="M32.78 32.745l-5.045-8.67c.873-.266 1.803-.501 2.189-1.168.644-1.112-.502-2.936-.201-4.127.31-1.227 2.14-2.288 2.14-3.534 0-1.215-1.892-2.633-2.203-3.853-.302-1.191.84-3.017.194-4.127-.646-1.11-2.798-1.02-3.683-1.872-.912-.877-.909-3.023-2.008-3.61-1.104-.59-2.898.602-4.123.32C18.828 1.823 17.746 0 16.48 0c-1.284 0-3.327 2.07-3.647 2.144-1.225.284-3.021-.905-4.124-.313-1.098.59-1.091 2.737-2.001 3.615-.884.854-3.036.767-3.68 1.878-.644 1.112.502 2.935.201 4.127-.302 1.195-2.196 2.406-2.196 3.789 0 1.246 1.835 2.304 2.147 3.53.303 1.191-.84 3.017-.193 4.128.351.604 1.15.852 1.946 1.09.093.029.27.133.15.306L.149 32.81c-.349.602-.065 1.119.63 1.148l3.404.142c.696.03 1.568.535 1.94 1.123l1.815 2.883c.372.588.96.577 1.31-.025l5.084-8.777c.102-.119.204-.094.253-.053.556.474 1.331.946 1.979.946.634 0 1.221-.445 1.803-.94.047-.04.162-.123.246.048l5.078 8.729c.35.602.939.612 1.309.022l1.811-2.885c.37-.59 1.242-1.097 1.937-1.127l3.404-.148c.695-.031.977-.548.627-1.15zm-10.675-7.892c-3.763 2.19-8.28 1.955-11.73-.222-5.057-3.238-6.72-9.937-3.68-15.183 3.073-5.306 9.83-7.179 15.185-4.263l.084.047.118.067a11.236 11.236 0 014.11 4.097c3.135 5.388 1.302 12.322-4.087 15.457z" fill="#fff"/><path d="M21.245 6.884c-.015-.01-.031-.018-.047-.027a9.518 9.518 0 00-9.56.002C7.103 9.496 5.56 15.33 8.197 19.864a9.452 9.452 0 003.18 3.28c.109.07.218.137.33.201 4.539 2.63 10.37 1.077 13-3.462 2.629-4.539 1.076-10.37-3.463-13zm1.136 7.42l-1.59 1.548c-.492.48-.8 1.427-.683 2.105l.375 2.187c.116.677-.287.97-.895.65l-1.964-1.033c-.609-.32-1.604-.32-2.213 0l-1.964 1.033c-.608.32-1.011.027-.895-.65l.375-2.187c.117-.678-.191-1.625-.683-2.105l-1.59-1.549c-.492-.48-.338-.953.342-1.052l2.197-.319c.68-.098 1.485-.684 1.79-1.3l.981-1.99c.305-.616.803-.616 1.107 0l.982 1.99c.304.616 1.11 1.202 1.79 1.3l2.196.32c.68.098.834.572.341 1.051z" fill="#fff"/></svg>