<svg width="27" height="27" fill="none" xmlns="http://www.w3.org/2000/svg"><path d="M0 13.5C0 20.956 6.044 27 13.5 27S27 20.956 27 13.5 20.956 0 13.5 0 0 6.044 0 13.5z" fill="#CA0100"/><path d="M13.644 8.085c4.85 0 8.59 2.352 8.59 5.559 0 3.206-3.74 5.558-8.59 5.558-4.851 0-8.59-2.352-8.59-5.558 0-3.207 3.739-5.559 8.59-5.559zm-5.25 2.618c0 .736 1.235 1.304 3.213 1.531.184-1.76.719-2.918 1.405-3.35-2.11.125-4.618.837-4.618 1.819zm5.25 5.941c.688 0 1.25-1.022 1.293-2.992a17.035 17.035 0 01-2.587 0c.044 1.97.606 2.992 1.294 2.992zm0-4.301c.423 0 .826-.012 1.21-.036-.188-1.179-.659-2.148-1.21-2.148-.551 0-1.021.97-1.21 2.148.384.023.787.035 1.21.036zm.63-3.46c.688.432 1.222 1.59 1.406 3.351 1.98-.228 3.214-.795 3.214-1.531 0-.985-2.508-1.698-4.62-1.82zm6.502 4.542a3.477 3.477 0 00-.75-2.157c-.193 1.055-1.808 1.965-4.275 2.298v.078c0 2.572-.628 4.23-1.492 4.752 3.651-.22 6.517-2.373 6.517-4.97zm-7.747 4.971c-.864-.523-1.492-2.18-1.492-4.752v-.078c-2.467-.333-4.082-1.243-4.274-2.298a3.477 3.477 0 00-.75 2.157c0 2.598 2.865 4.752 6.516 4.971z" fill="#fff"/></svg>