<svg width="9" height="10" fill="none" xmlns="http://www.w3.org/2000/svg"><g clip-path="url(#clip0_2157_26116)"><path d="M8.798 8.021l-1.39-1.39a.725.725 0 00-1.021.02l-.7.7-.139-.077c-.442-.245-1.047-.581-1.684-1.218-.639-.64-.975-1.245-1.22-1.688l-.076-.135.47-.469.23-.231a.724.724 0 00.02-1.022l-1.39-1.39a.724.724 0 00-1.022.019l-.392.394.01.01c-.13.168-.24.361-.322.57a2.36 2.36 0 00-.144.577c-.183 1.522.512 2.912 2.399 4.8 2.608 2.607 4.71 2.41 4.8 2.4a2.348 2.348 0 001.147-.466l.009.007.397-.388a.725.725 0 00.018-1.023z" fill="#fff"/></g><defs><clipPath id="clip0_2157_26116"><path fill="#fff" transform="translate(0 .909)" d="M0 0h9v9.001H0z"/></clipPath></defs></svg>