<svg width="19" height="18" fill="none" xmlns="http://www.w3.org/2000/svg"><path fill-rule="evenodd" clip-rule="evenodd" d="M18.736 3.362l-2.86-2.93c-.33-.337-1.027-.337-1.354 0v2.042c-1.63.07-3.466 1.027-4.462 2.412-.998-1.384-2.963-2.343-4.592-2.412V.433c-.33-.338-1.026-.338-1.355 0l-2.73 2.93a.876.876 0 000 1.22l2.73 2.928c.329.338 1.025.338 1.355 0V5.53c1.566.1 3.527 1.412 3.527 3.025v8.25h2.096v-8.25c0-1.614 1.864-2.927 3.43-3.025v1.982c.328.338 1.026.338 1.354 0l2.861-2.928a.876.876 0 000-1.22z" fill="#fff"/></svg>