<svg width="11" height="12" fill="none" xmlns="http://www.w3.org/2000/svg"><g clip-path="url(#clip0_2157_26128)"><path d="M5.5.016A3.989 3.989 0 001.515 4c0 2.727 3.565 6.73 3.717 6.898a.359.359 0 00.533 0C5.918 10.73 9.483 6.727 9.483 4A3.989 3.989 0 005.5.016zm0 5.989c-1.106 0-2.005-.9-2.005-2.005s.9-2.005 2.004-2.005c1.106 0 2.005.9 2.005 2.005s-.9 2.005-2.005 2.005z" fill="#fff"/></g><defs><clipPath id="clip0_2157_26128"><path fill="#fff" transform="translate(0 .016)" d="M0 0h11v11.002H0z"/></clipPath></defs></svg>